<?xml version="1.0" encoding="UTF-8" standalone="no"?>
<svg
   xmlns:dc="http://purl.org/dc/elements/1.1/"
   xmlns:cc="http://creativecommons.org/ns#"
   xmlns:rdf="http://www.w3.org/1999/02/22-rdf-syntax-ns#"
   xmlns:svg="http://www.w3.org/2000/svg"
   xmlns="http://www.w3.org/2000/svg"
   xmlns:sodipodi="http://sodipodi.sourceforge.net/DTD/sodipodi-0.dtd"
   xmlns:inkscape="http://www.inkscape.org/namespaces/inkscape"
   sodipodi:docname="Blank.svg"
   inkscape:version="1.0.1 (3bc2e813f5, 2020-09-07)"
   id="svg8"
   version="1.1"
   viewBox="0 0 162.56 128.5"
   height="128.5mm"
   width="162.56mm">
  <defs
     id="defs2">
    <rect
       x="86.640758"
       y="24.909991"
       width="20.543021"
       height="16.489964"
       id="rect905" />
    <rect
       x="112.50987"
       y="33.885986"
       width="37.032661"
       height="25.050158"
       id="rect916" />
    <rect
       x="14.257509"
       y="47.104031"
       width="72.266251"
       height="32.482395"
       id="rect879" />
    <rect
       x="6.4213223"
       y="52.097614"
       width="77.915092"
       height="33.679131"
       id="rect867" />
    <rect
       x="30.278118"
       y="102.44599"
       width="25.677448"
       height="16.795015"
       id="rect861" />
    <rect
       x="31.511478"
       y="98.051979"
       width="32.137817"
       height="21.467941"
       id="rect855" />
    <rect
       x="11.942899"
       y="108.14312"
       width="38.103474"
       height="19.55794"
       id="rect849" />
    <rect
       x="4.7827611"
       y="108.40496"
       width="32.925808"
       height="16.613628"
       id="rect843" />
  </defs>
  <sodipodi:namedview
     units="in"
     inkscape:window-maximized="1"
     inkscape:window-y="27"
     inkscape:window-x="0"
     inkscape:window-height="1016"
     inkscape:window-width="1920"
     showgrid="true"
     inkscape:document-rotation="0"
     inkscape:current-layer="text877"
     inkscape:document-units="mm"
     inkscape:cy="351.31242"
     inkscape:cx="525.25173"
     inkscape:zoom="1.8562314"
     inkscape:pageshadow="2"
     inkscape:pageopacity="0"
     borderopacity="1.0"
     bordercolor="#666666"
     pagecolor="#000000"
     id="base"
     showguides="false" />
  <metadata
     id="metadata5">
    <rdf:RDF>
      <cc:Work
         rdf:about="">
        <dc:format>image/svg+xml</dc:format>
        <dc:type
           rdf:resource="http://purl.org/dc/dcmitype/StillImage" />
        <dc:title />
      </cc:Work>
    </rdf:RDF>
  </metadata>
  <g
     inkscape:label="components"
     id="layer2"
     inkscape:groupmode="layer" />
  <g
     id="layer1"
     inkscape:groupmode="layer"
     inkscape:label="background">
    <rect
       style="fill:#1b1b1b;fill-opacity:0.999952;stroke-width:0.305514"
       id="rect906"
       width="162.56"
       height="128.5"
       x="-8.6736174e-19"
       y="0" />
    <g
       aria-label="# ∠ ↥ RBG ✥ ✢ ▒"
       id="text877"
       style="font-size:10.5833px;line-height:1.25;font-family:'ODINS SPEAR';-inkscape-font-specification:'ODINS SPEAR';letter-spacing:0px;word-spacing:0px;white-space:pre;shape-inside:url(#rect879);fill:#ffffff;fill-opacity:1"
       transform="matrix(0.86975998,0,0,0.86975998,21.194578,-10.009862)">
      <rect
         style="font-size:10.5833px;line-height:1.25;font-family:'ODINS SPEAR';-inkscape-font-specification:'ODINS SPEAR';letter-spacing:0px;word-spacing:0px;white-space:pre;shape-inside:url(#rect879);fill:#4f4f4f;fill-opacity:1;stroke-width:0.513382"
         id="rect1586-3-6"
         width="35.642017"
         height="48.289188"
         x="125.09821"
         y="99.464066"
         rx="3.4492276"
         ry="3.4492276" />
      <rect
         style="font-size:10.5833px;line-height:1.25;font-family:'ODINS SPEAR';-inkscape-font-specification:'ODINS SPEAR';letter-spacing:0px;word-spacing:0px;white-space:pre;shape-inside:url(#rect879);fill:#4f4f4f;fill-opacity:1;stroke-width:0.528439"
         id="rect1586-3"
         width="35.642017"
         height="51.16354"
         x="125.09821"
         y="47.15078"
         rx="3.4492276"
         ry="3.4492276" />
      <rect
         style="font-size:10.5833px;line-height:1.25;font-family:'ODINS SPEAR';-inkscape-font-specification:'ODINS SPEAR';letter-spacing:0px;word-spacing:0px;white-space:pre;shape-inside:url(#rect879);fill:#3e3e3e;fill-opacity:1;stroke-width:0.349086"
         id="rect1586-36-5"
         width="32.192791"
         height="24.719463"
         x="126.82283"
         y="73.019989"
         rx="3.4492273"
         ry="3.4492278" />
      <rect
         style="fill:#4f4f4f;fill-opacity:1;stroke-width:0.426592"
         id="rect1586"
         width="35.642017"
         height="33.342533"
         x="125.09821"
         y="12.658506"
         rx="3.4492276"
         ry="3.4492276" />
      <rect
         style="font-size:10.5833px;line-height:1.25;font-family:'ODINS SPEAR';-inkscape-font-specification:'ODINS SPEAR';letter-spacing:0px;word-spacing:0px;white-space:pre;shape-inside:url(#rect879);fill:#3e3e3e;fill-opacity:1;stroke-width:0.232046"
         id="rect1586-36-7-3-5"
         width="32.192791"
         height="10.922554"
         x="126.82283"
         y="60.947689"
         rx="3.4492278"
         ry="3.4492276" />
      <path
         d="m 130.28022,63.813347 q 0.0574,0.18847 0,0.32778 l 0.0983,0.0983 -0.0656,0.0328 q 0.0164,0.0492 0,0.0983 0,0.16389 -0.0328,0.26222 l 0.0328,0.52446 -0.13111,0.0656 -0.19668,-1e-5 q -0.4671,-0.13111 -0.85225,0 l 0.0983,0.0656 q -0.20486,0.13931 -0.0328,0.36056 h 0.26223 l 0.0656,-0.0328 0.13112,0.0328 q 0.3114,-0.0738 0.62279,-10e-6 l 0.0328,0.55725 -0.0328,0.0983 v 0.81946 q -0.0246,0.44252 0.0328,0.75392 -0.0573,-0.0246 -0.0656,-0.0656 l -0.13111,2e-5 -0.0983,3e-5 h -0.62279 q -0.0164,0.25403 -0.0656,0.42612 l 0.0656,-0.0656 q 0.24584,0.1557 0.49168,0.0656 0.20487,0.0819 0.39334,0.0328 l 1e-5,0.22944 q 0.10653,0.31141 0,0.55724 l -1e-5,0.13111 q 0.082,0.14751 0,0.29501 0.0574,0.0246 0.0656,0.0656 0.24584,0.008 0.42613,-0.0656 l -0.0656,-0.0983 0.0328,-0.26223 0.0328,-0.0656 q -0.041,-0.44251 0,-0.75391 0.18847,-1e-5 0.36056,-0.0656 l 0.0983,0.0656 q 0.25403,-0.041 0.45889,0 l 0.0984,-0.0326 0.0983,-2e-5 q 0.12292,0.041 0.26223,0.0328 l 0.0983,-4e-5 h 0.42612 l 0.0328,0.1639 -0.0328,0.0656 v 0.91779 q 0.26223,0.0738 0.4589,0.0328 l 0.0328,-0.1311 v -0.0983 l 1e-5,-0.13111 -1e-5,-0.0983 -0.0328,-0.0983 1e-5,-0.0983 q 0.0656,-0.30319 0.0328,-0.52445 l 0.22945,1e-5 0.0983,-2e-5 0.0983,-3e-5 0.22946,2e-5 q 0.18847,-0.0328 0.36056,0 0.0328,-0.0573 0.0656,-0.0656 0.008,-0.24584 -0.0656,-0.42612 -0.41792,-0.041 -0.75391,0.0656 -0.13111,-0.0656 -0.26222,-0.0656 v -0.39335 -0.32778 l -1e-5,-0.0983 v -0.0983 -0.0983 q -0.0164,-0.0492 0,-0.0983 -0.0164,-0.0492 -1e-5,-0.0983 l 1e-5,-0.0983 -0.0328,-0.0983 -1e-5,-0.0983 0.0328,-0.0656 q -0.008,-0.23764 -0.0656,-0.39334 0.082,-0.0983 0.0656,-0.19667 0.0573,-0.0246 0.0655,-0.0656 0.42613,0.10654 0.75391,0 l 0.0983,0.0656 q 0.22945,-0.14751 0.1639,-0.39335 l -0.16389,-0.0983 q -0.35236,0.0492 -0.62279,0 l -0.0656,0.0983 q -0.12291,-0.082 -0.22945,-0.0656 0.0328,-0.34418 -0.13111,-0.59002 0.21306,-0.22945 0.0656,-0.52445 0.0983,-0.21306 0,-0.39334 -0.24584,-0.008 -0.42612,0.0656 v 0.39334 q -0.0164,0.33598 0.0328,0.55724 l -0.0328,0.45889 -0.13111,2e-5 -0.0983,0.0656 q -0.0901,-0.0246 -0.13111,2e-5 l -0.13111,-0.0656 -0.36057,0.0328 q -0.36876,-0.0656 -0.65557,0.0328 -0.17209,-0.0738 -0.39334,-0.0656 -0.0738,-0.36056 0,-0.65556 l -0.0983,-0.0656 q 0.13931,-0.39334 0.0983,-0.68835 -0.23765,-0.0901 -0.42612,-0.0656 z m 0.49168,1.77003 q 0.44251,0.0738 0.72113,0.0656 l 0.0983,-0.0656 0.0983,0.0656 0.0983,-3e-5 0.0983,-3e-5 0.0983,-2e-5 q 0.18847,-0.041 0.36057,-0.0328 l 0.32778,0.0328 0.0328,0.16389 -0.0328,0.29501 0.0656,0.0983 -0.0656,0.0983 v 0.45891 q 0.0246,0.0901 0,0.1311 l 0.0328,0.0983 v 0.0983 q -0.0574,0.43431 0,0.75391 l -0.22945,-0.0328 -0.13104,0.0331 -0.19667,-0.0328 -0.26222,0.0328 -0.0983,-0.0328 -0.22946,-2e-5 q -0.42612,0.041 -0.68835,0 -0.13111,-0.008 -0.13111,-0.16389 l 0.0328,-0.19667 -0.0655,-0.13112 0.0655,-0.1639 q -0.0328,-0.18847 0,-0.32778 v -0.16388 -0.26224 l -0.0655,-0.19667 q 0.0819,-0.36876 0.0655,-0.62279 z"
         style="fill:#ffffff;fill-opacity:1;stroke-width:1.58577"
         id="path883" />
      <rect
         style="font-size:10.5833px;line-height:1.25;font-family:'ODINS SPEAR';-inkscape-font-specification:'ODINS SPEAR';letter-spacing:0px;word-spacing:0px;white-space:pre;shape-inside:url(#rect879);fill:#3e3e3e;fill-opacity:1;stroke-width:0.232046"
         id="rect1586-36-7-3-5-6-2-9"
         width="32.192791"
         height="10.922554"
         x="126.82285"
         y="124.18353"
         rx="3.4492278"
         ry="3.4492276" />
      <path
         d="m 134.76147,131.80673 v 0.77117 h -5.47457 l 3.63826,-5.69981 h 0.92389 l -3.13433,4.92864 z"
         style="fill:#ffffff;fill-opacity:1;stroke-width:0.738771"
         id="path885" />
      <rect
         style="font-size:10.5833px;line-height:1.25;font-family:'ODINS SPEAR';-inkscape-font-specification:'ODINS SPEAR';letter-spacing:0px;word-spacing:0px;white-space:pre;shape-inside:url(#rect879);fill:#3e3e3e;fill-opacity:1;stroke-width:0.232046"
         id="rect1586-36-7-3-5-6-2-9-1"
         width="32.192791"
         height="10.922554"
         x="126.82286"
         y="135.68094"
         rx="3.4492278"
         ry="3.4492276" />
      <path
         d="m 132.29205,143.33006 v -4.10238 l -0.90644,0.91425 -0.46884,-0.46885 1.53156,-1.53937 h 0.35163 l 1.53156,1.53937 -0.46885,0.46885 -0.90643,-0.91425 v 4.10238 h 1.35184 v 0.6642 h -3.36005 v -0.6642 z"
         style="fill:#ffffff;fill-opacity:1;stroke-width:0.75606"
         id="path887" />
      <rect
         style="font-size:10.5833px;line-height:1.25;font-family:'ODINS SPEAR';-inkscape-font-specification:'ODINS SPEAR';letter-spacing:0px;word-spacing:0px;white-space:pre;shape-inside:url(#rect879);fill:#3e3e3e;fill-opacity:1;stroke-width:0.232046"
         id="rect1586-36-7-3-5-6"
         width="32.192787"
         height="10.922554"
         x="126.82283"
         y="101.18867"
         rx="3.4492276"
         ry="3.4492276" />
      <path
         d="m 132.78251,106.20324 v -0.142 q 0,-0.82537 -0.33724,-1.36673 -0.19525,-0.31062 -0.19525,-0.83423 0,-0.44374 0.23962,-0.65674 0.2485,-0.213 0.51475,-0.213 0.26624,0 0.51474,0.213 0.23962,0.213 0.23962,0.65674 0,0.52361 -0.19525,0.83423 -0.33724,0.54136 -0.33724,1.36673 v 0.142 h 0.142 q 0.82536,0 1.36673,-0.33724 0.31062,-0.19525 0.83424,-0.19525 0.44374,0 0.65674,0.23962 0.21299,0.24849 0.21299,0.51474 0,0.26624 -0.21299,0.51474 -0.213,0.23962 -0.65674,0.23962 -0.52362,0 -0.83424,-0.19524 -0.54137,-0.33725 -1.36673,-0.33725 h -0.142 v 0.142 q 0,0.8298 0.33724,1.36673 0.19525,0.31062 0.19525,0.83423 0,0.44376 -0.23962,0.65675 -0.2485,0.21744 -0.51474,0.21744 -0.26625,0 -0.51475,-0.21744 -0.23962,-0.21299 -0.23962,-0.65675 0,-0.52361 0.19525,-0.83423 0.33724,-0.53693 0.33724,-1.36673 v -0.142 h -0.14199 q -0.82537,0 -1.36673,0.33725 -0.31062,0.19524 -0.83424,0.19524 -0.44375,0 -0.65674,-0.23962 -0.213,-0.2485 -0.213,-0.51474 0,-0.26625 0.213,-0.51474 0.21299,-0.23962 0.65674,-0.23962 0.52362,0 0.83424,0.19525 0.54136,0.33724 1.36673,0.33724 z"
         style="fill:#ffffff;fill-opacity:1;stroke-width:0.858699"
         id="path897" />
      <rect
         style="font-size:10.5833px;line-height:1.25;font-family:'ODINS SPEAR';-inkscape-font-specification:'ODINS SPEAR';letter-spacing:0px;word-spacing:0px;white-space:pre;shape-inside:url(#rect879);fill:#3e3e3e;fill-opacity:1;stroke-width:0.232046"
         id="rect1586-36-7-3-5-6-2"
         width="32.192791"
         height="10.922554"
         x="126.82283"
         y="112.68611"
         rx="3.4492278"
         ry="3.4492276" />
      <path
         d="m 130.37199,115.2313 h -0.81267 v -0.72978 h 0.81267 z m 0.81682,0 v -0.72978 h 0.81681 v 0.72978 z m 1.63363,0 v -0.72978 h 0.81682 v 0.72978 z m 1.63364,0 v -0.72978 h 0.81681 v 0.72978 z m -4.08409,0 h 0.81682 v 0.73592 h -0.81682 z m 1.63363,0 h 0.81682 v 0.73592 h -0.81682 z m 1.63364,0 h 0.81682 v 0.73592 h -0.81682 z m 1.63363,0 h 0.81682 v 0.73592 h -0.81682 z m -4.9009,1.46876 h 0.81682 v 0.73592 h -0.81682 z m 0,0 h -0.81267 v -0.73284 h 0.81267 z m 0,0.73592 v 0.73285 h -0.81267 v -0.73285 z m 0,0.73285 h 0.81682 v 0.73284 h -0.81682 z m 0,0.73284 v 0.73285 h -0.81267 v -0.73285 z m 0,0.73285 h 0.81682 v 0.73592 h -0.81682 z m 0,0.73592 v 0.73284 h -0.81267 v -0.73284 z m 0,0.73284 h 0.81682 v 0.73285 h -0.81682 z m 0.81682,0 v -0.73284 h 0.81681 v 0.73284 z m 0,-1.46876 v -0.73285 h 0.81681 v 0.73285 z m 0,-1.46569 v -0.73285 h 0.81681 v 0.73285 z m 0,-1.46877 v -0.73284 h 0.81681 v 0.73284 z m 0.81681,0 h 0.81682 v 0.73592 h -0.81682 z m 0,1.46877 h 0.81682 v 0.73284 h -0.81682 z m 0,1.46569 h 0.81682 v 0.73592 h -0.81682 z m 0,1.46876 h 0.81682 v 0.73285 h -0.81682 z m 0.81682,0 v -0.73284 h 0.81682 v 0.73284 z m 0,-1.46876 v -0.73285 h 0.81682 v 0.73285 z m 0,-1.46569 v -0.73285 h 0.81682 v 0.73285 z m 0,-1.46877 v -0.73284 h 0.81682 v 0.73284 z m 0.81682,0 h 0.81682 v 0.73592 h -0.81682 z m 0,1.46877 h 0.81682 v 0.73284 h -0.81682 z m 0,1.46569 h 0.81682 v 0.73592 h -0.81682 z m 0,1.46876 h 0.81682 v 0.73285 h -0.81682 z m 0.81682,0 v -0.73284 h 0.81681 v 0.73284 z m 0,-1.46876 v -0.73285 h 0.81681 v 0.73285 z m 0,-1.46569 v -0.73285 h 0.81681 v 0.73285 z m 0,-1.46877 v -0.73284 h 0.81681 v 0.73284 z m 0.81681,0 h 0.81682 v 0.73592 h -0.81682 z m 0,1.46877 h 0.81682 v 0.73284 h -0.81682 z m 0,1.46569 h 0.81682 v 0.73592 h -0.81682 z m 0,1.46876 h 0.81682 v 0.73285 h -0.81682 z"
         style="fill:#ffffff;fill-opacity:1;stroke-width:0.689995"
         id="path899" />
      <rect
         style="font-size:10.5833px;line-height:1.25;font-family:'ODINS SPEAR';-inkscape-font-specification:'ODINS SPEAR';letter-spacing:0px;word-spacing:0px;white-space:pre;shape-inside:url(#rect879);fill:#808080;fill-opacity:1;stroke-width:0.283126"
         id="rect1586-36"
         width="27.593821"
         height="18.970751"
         x="129.12231"
         y="14.383121"
         rx="3.4492276"
         ry="3.4492276" />
      <rect
         style="font-size:10.5833px;line-height:1.25;font-family:'ODINS SPEAR';-inkscape-font-specification:'ODINS SPEAR';letter-spacing:0px;word-spacing:0px;white-space:pre;shape-inside:url(#rect879);fill:#808080;fill-opacity:1;stroke-width:0.232046"
         id="rect1586-36-7-3"
         width="32.192791"
         height="10.922554"
         x="126.82281"
         y="48.875393"
         rx="3.4492276"
         ry="3.4492276" />
      <g
         aria-label="⧗ ↻ ↯"
         id="text914"
         style="font-size:10.5833px;line-height:1.25;font-family:'ODINS SPEAR';-inkscape-font-specification:'ODINS SPEAR';letter-spacing:0px;word-spacing:0px;white-space:pre;shape-inside:url(#rect916)"
         transform="translate(-33.751808,12.210567)">
        <path
           d="m 186.88467,19.531511 -0.28575,0.592665 h -5.41865 l -0.30691,-0.592665 2.59291,-2.592908 -2.59291,-2.592909 0.30691,-0.592664 h 5.41865 l 0.28575,0.592664 -2.59291,2.592909 z"
           id="path920" />
        <path
           d="m 167.43634,40.669305 0.62011,-0.620115 q 0.47542,0.490924 0.70797,1.043861 0.23771,0.578774 0.23771,1.235062 0,0.640786 -0.23771,1.21956 -0.24805,0.583942 -0.70797,1.043861 -0.45475,0.449583 -1.03352,0.697629 -0.55811,0.237711 -1.21956,0.237711 -0.6873,0 -1.21956,-0.237711 -0.59945,-0.268716 -1.03353,-0.697629 -0.45992,-0.459919 -0.70797,-1.043861 -0.23771,-0.578774 -0.23771,-1.21956 0,-0.656288 0.23771,-1.235062 0.24288,-0.578775 0.70797,-1.043861 l 0.18087,-0.180867 h -1.70532 v -0.878497 h 2.8732 l 0.33073,0.330729 v 2.8732 h -0.8785 v -1.705317 l -0.18086,0.180867 q -0.34107,0.341064 -0.51677,0.759641 -0.17053,0.418578 -0.17053,0.899167 0,0.465087 0.17053,0.883665 0.17053,0.418577 0.5116,0.759641 0.33073,0.32556 0.75447,0.506427 0.40308,0.170532 0.894,0.170532 0.49092,0 0.87333,-0.170532 0.44442,-0.201537 0.75447,-0.506427 0.34107,-0.341064 0.5116,-0.759641 0.17053,-0.418578 0.17053,-0.883665 0,-0.480589 -0.17053,-0.899167 -0.16537,-0.418577 -0.51676,-0.759641 z"
           id="path922" />
        <path
           d="m 169.93182,15.211679 -3.79821,2.191074 0.81132,-4.588852 0.863,0.14986 -0.48576,2.738843 3.7982,-2.191074 -0.99735,5.663719 1.39009,-0.981849 0.50643,0.7183 -2.35127,1.65364 -0.45992,-0.08268 -1.64847,-2.356437 0.7183,-0.506428 0.98185,1.400427 z"
           id="path924" />
      </g>
      <rect
         style="font-size:10.5833px;line-height:1.25;font-family:'ODINS SPEAR';-inkscape-font-specification:'ODINS SPEAR';letter-spacing:0px;word-spacing:0px;white-space:pre;shape-inside:url(#rect879);fill:#3e3e3e;fill-opacity:1;stroke-width:0.232046"
         id="rect1586-36-7"
         width="32.192791"
         height="10.922554"
         x="126.82283"
         y="34.503613"
         rx="3.4492276"
         ry="3.4492276" />
      <g
         aria-label="!"
         transform="translate(42.869859,7.4503179)"
         id="text903"
         style="font-size:12.1681px;line-height:1.25;font-family:'ODINS SPEAR';-inkscape-font-specification:'ODINS SPEAR';letter-spacing:0px;word-spacing:0px;white-space:pre;shape-inside:url(#rect905)">
        <path
           d="m 87.579375,29.786576 q -0.178244,0.136654 -0.190127,0.332722 0.02971,0.118829 0.02377,0.213892 -0.01188,0.136654 0.0713,0.213893 -0.04159,0.112887 -0.04753,0.213892 l 0.02377,0.166361 0.02377,0.142595 -0.02377,0.09506 q 0.01188,0.190126 0.0713,0.332721 -0.01188,0.136654 0.02377,0.261424 l -0.04753,0.04753 v 0.09506 q 0.06536,0.32678 0.04753,0.546614 v 0.166361 q 0.02377,0.06536 0.02377,0.118829 -0.0059,0.178244 0.02377,0.308956 v 0.308955 q 0.04753,0.178244 0.02377,0.308956 0.04753,0.219834 0.02376,0.380253 l 0.0713,0.04753 q -0.0713,0.28519 -0.04753,0.522848 0.267366,0.166361 0.475317,0 l -0.02377,-0.166361 -0.02377,-0.0713 0.04753,-0.02377 q 0,-0.2436 0.02376,-0.404019 v -0.0713 l 0.02377,-0.261424 v -0.0713 q 0,-0.32678 0.04753,-0.546614 l -0.04753,-0.142595 0.0713,-0.0713 v -0.09506 q 0.02377,-0.237658 0,-0.404019 l 0.02377,-0.09506 q 0.01782,-0.166361 0,-0.28519 0.04753,-0.136653 0.04753,-0.237658 l -0.04753,0.04753 q 0.03565,-0.166361 0.02376,-0.28519 -0.0059,-0.142595 0.02377,-0.261424 0.04159,-0.04159 0.04753,-0.09506 -0.0059,-0.142595 0.02377,-0.261424 -0.01783,-0.184186 0.02376,-0.332722 v -0.09506 q 0,-0.267366 0.02377,-0.427785 -0.09506,-0.08318 -0.142595,-0.166361 z m 0.237658,5.038354 q -0.07724,0.112888 -0.166361,0.166361 -0.243599,0.303014 -0.45155,0.451551 l 0.02377,0.332721 0.0713,0.0713 h 0.09506 0.237659 0.09506 0.09506 0.0713 0.09506 0.427785 q 0.190126,-0.178244 0.213892,-0.380253 l -0.0713,-0.04753 -0.04753,-0.0713 -0.04753,-0.02376 -0.04753,-0.0713 -0.118829,-0.118829 -0.04753,-0.02377 -0.02377,-0.04753 q -0.160419,-0.11883 -0.237658,-0.237659 z m 0.451551,0.950633 q 0.184185,0.04753 -0.04753,0.04753 z"
           id="path909" />
      </g>
      <rect
         style="font-size:10.5833px;line-height:1.25;font-family:'ODINS SPEAR';-inkscape-font-specification:'ODINS SPEAR';letter-spacing:0px;word-spacing:0px;white-space:pre;shape-inside:url(#rect879);fill:#5a5a5a;fill-opacity:1;stroke-width:0.225857"
         id="rect1586-36-7-3-5-6-2-9-1-3"
         width="32.192791"
         height="10.347682"
         x="126.82286"
         y="148.32812"
         rx="3.4492276"
         ry="3.4492276" />
      <g
         aria-label="æz "
         transform="matrix(0.47713817,0,0,0.41165603,164.61067,-17.328748)"
         id="text1525"
         style="font-size:10.5833px;line-height:1.25;font-family:'ODINS SPEAR';-inkscape-font-specification:'ODINS SPEAR';letter-spacing:0px;word-spacing:0px;white-space:pre;shape-inside:url(#rect1527);display:inline;fill:#a7a7a7;fill-opacity:1">
        <path
           d="m -49.032894,226.03177 q -0.0635,0.0423 -0.1905,0.10584 -0.126999,0.0635 -0.211666,0.11641 -0.07408,0.0423 -0.08467,0.0741 -0.169333,0.3175 -0.814914,0.62441 -0.634998,0.30692 -1.047747,0.30692 -0.243416,0 -0.624414,-0.0953 -0.380999,-0.0952 -0.518582,-0.21167 -0.232833,-0.21166 -0.232833,-0.96308 0,-0.4445 0.201083,-0.762 0.211666,-0.32808 0.740831,-0.66674 0.582081,-0.39159 1.132413,-0.39159 0.211666,0 0.359832,0.0953 0.148166,0.0847 0.22225,0.16934 0.07408,0.0847 0.126999,0.0847 0.04233,0 0.169333,0.11642 0.137583,0.10583 0.148166,0.10583 0.03175,0 0.03175,-0.23283 0,-0.97366 -0.08467,-1.54516 -0.08467,-0.5715 -0.232833,-0.77258 -0.137583,-0.20109 -0.349249,-0.20109 -0.423332,0 -0.89958,0.21167 -0.476249,0.20108 -0.846664,0.40217 -0.370416,0.20108 -0.529165,0.20108 -0.105833,0 -0.105833,-0.10583 0,-0.14817 0.05292,-0.254 0.05292,-0.10584 0.201083,-0.20109 0.148166,-0.0953 0.275166,-0.15875 0.137583,-0.0635 0.433915,-0.17991 0.296332,-0.127 0.507998,-0.23283 0.486832,-0.22225 0.836081,-0.22225 0.370416,0 0.624415,0.127 0.253999,0.11641 0.412748,0.47624 0.201083,0.4445 0.211666,0.48684 0.380999,-0.60325 0.719665,-0.93133 0.338665,-0.33867 0.751414,-0.33867 0.116416,0 0.359832,0.0317 0.359832,0.0423 0.497415,0.10583 0.148166,0.0635 0.328083,0.26459 0.232832,0.25399 0.412748,0.64558 0.179916,0.39158 0.179916,0.66674 0,0.33867 -0.190499,0.51859 -0.190499,0.16933 -0.719664,0.33866 -0.687915,0.22225 -1.365246,0.27517 l -0.687915,0.0529 v 0.42334 q 0,0.77258 0.518582,1.48166 0.370416,0.52916 0.793748,0.52916 0.402165,0 0.857247,-0.4445 0.465665,-0.45508 0.793747,-0.89958 0.338666,-0.45508 0.433916,-0.45508 0.03175,0 0.03175,0.0847 0,0.1905 -0.201083,0.62441 -0.1905,0.42334 -0.412749,0.68792 -0.772581,0.98424 -1.555745,0.98424 -0.433915,-0.0317 -0.709081,-0.25399 -0.275166,-0.23284 -0.751414,-0.89959 z m 2.402409,-3.80998 q -0.22225,-0.29634 -0.338666,-0.37042 -0.116416,-0.0847 -0.306915,-0.0847 -0.370416,0 -0.550332,0.10583 -0.179916,0.0953 -0.359832,0.40216 -0.571498,0.93133 -0.571498,1.22767 0,0.13758 0.179916,0.13758 0.677331,0 1.915577,-0.40217 0.370415,-0.127 0.370415,-0.44449 0,-0.14817 -0.338665,-0.5715 z m -3.249073,3.04799 q 0,-0.0847 -0.07408,-0.1905 -0.0635,-0.11642 -0.306916,-0.23283 -0.243416,-0.127 -0.613831,-0.127 -0.391582,0 -0.698498,0.15875 -0.296333,0.15874 -0.444499,0.40216 -0.148166,0.24342 -0.222249,0.45508 -0.0635,0.20109 -0.0635,0.35983 0,0.26459 0.04233,0.35984 0.04233,0.0953 0.211666,0.20108 0.201083,0.11642 0.370416,0.11642 0.317499,0 0.772581,-0.254 0.465665,-0.26459 0.465665,-0.381 0,-0.0847 0.275166,-0.40217 0.285749,-0.32808 0.285749,-0.46566 z"
           style="font-style:normal;font-variant:normal;font-weight:normal;font-stretch:normal;font-family:Purisa;-inkscape-font-specification:Purisa;fill:#a7a7a7;fill-opacity:1"
           id="path1535" />
        <path
           d="m -43.719251,223.1002 q -0.127,0 -0.253999,-0.0529 -0.127,-0.0529 -0.127,-0.13758 0,-0.29633 1.09008,-0.70908 1.100663,-0.41275 1.608662,-0.52916 0.148166,-0.0317 0.306915,-0.0317 0.285749,0 0.560915,0.0847 0.275166,0.0741 0.380999,0.1905 0.137583,0.14817 0.137583,0.51858 0,0.56092 -0.306916,1.22767 l -0.232832,0.48683 0.391582,0.0529 q 0.476248,0.0317 0.476248,0.14817 0,0.0847 -0.232832,0.1905 -0.232833,0.10583 -0.539749,0.14817 -0.285749,0.0423 -0.455082,0.13758 -0.158749,0.0953 -0.412748,0.35983 -0.264583,0.27517 -0.582082,0.80433 -0.317499,0.51858 -0.317499,0.65617 0,0.0423 0.05292,0.0423 0.03175,0 0.941913,-0.16933 0.920747,-0.17992 1.460496,-0.17992 0.560915,0 0.560915,0.1905 0,0.11642 -0.211666,0.20108 -0.211666,0.0741 -0.857248,0.20109 -1.98966,0.39158 -2.423575,0.39158 -0.349249,0 -0.349249,-0.1905 0,-0.20108 0.359832,-0.889 0.359832,-0.68791 0.571498,-0.94191 0.275166,-0.33867 0.275166,-0.40217 0,-0.0741 -0.433915,-0.0741 -0.529165,0 -0.529165,-0.16933 0,-0.127 0.243416,-0.21167 0.253999,-0.0847 0.634998,-0.0847 0.380998,0 0.497415,-0.0423 0.126999,-0.0423 0.253999,-0.22225 0.253999,-0.381 0.423332,-0.84666 0.179916,-0.47625 0.179916,-0.80433 0,-0.17992 -0.05292,-0.22225 -0.05292,-0.0423 -0.264583,-0.0423 -0.507998,0.0106 -1.418162,0.28575 -0.910164,0.27517 -1.111247,0.48683 -0.116416,0.14817 -0.296332,0.14817 z"
           style="font-style:normal;font-variant:normal;font-weight:normal;font-stretch:normal;font-family:Purisa;-inkscape-font-specification:Purisa;fill:#a7a7a7;fill-opacity:1"
           id="path1537" />
      </g>
    </g>
  </g>
</svg>
