<?xml version="1.0" encoding="UTF-8" standalone="no"?>
<svg
   xmlns:dc="http://purl.org/dc/elements/1.1/"
   xmlns:cc="http://creativecommons.org/ns#"
   xmlns:rdf="http://www.w3.org/1999/02/22-rdf-syntax-ns#"
   xmlns:svg="http://www.w3.org/2000/svg"
   xmlns="http://www.w3.org/2000/svg"
   xmlns:sodipodi="http://sodipodi.sourceforge.net/DTD/sodipodi-0.dtd"
   xmlns:inkscape="http://www.inkscape.org/namespaces/inkscape"
   width="91.440002mm"
   height="128.5mm"
   viewBox="0 0 91.440004 128.5"
   version="1.1"
   id="svg8"
   inkscape:version="1.0 (6e3e5246a0, 2020-05-07)"
   sodipodi:docname="Modulo.svg">
  <defs
     id="defs2">
    <rect
       x="-53.435958"
       y="217.47998"
       width="59.592858"
       height="19.30407"
       id="rect1527" />
    <rect
       x="-60.713328"
       y="197.75168"
       width="49.444855"
       height="20.85645"
       id="rect1224" />
    <rect
       x="-55.137657"
       y="224.37854"
       width="41.239797"
       height="19.25289"
       id="rect1207" />
    <rect
       x="-54.978343"
       y="219.44337"
       width="49.038865"
       height="21.548236"
       id="rect1149" />
    <rect
       x="-46.656016"
       y="222.40095"
       width="39.576536"
       height="16.337156"
       id="rect1143" />
    <rect
       x="-52.064087"
       y="214.06497"
       width="34.20951"
       height="15.079691"
       id="rect1135" />
    <rect
       x="-46.552208"
       y="53.087532"
       width="46.506023"
       height="22.986782"
       id="rect929" />
    <rect
       x="-40.154388"
       y="188.70432"
       width="35.962185"
       height="74.168915"
       id="rect18809" />
    <rect
       x="-38.089745"
       y="224.1051"
       width="53.540108"
       height="35.300861"
       id="rect18782" />
    <rect
       x="95.112579"
       y="197.49838"
       width="29.944277"
       height="22.702229"
       id="rect18577" />
    <rect
       x="72.408058"
       y="175.62898"
       width="8.2974939"
       height="10.959877"
       id="rect18571" />
    <rect
       id="rect929-0"
       height="22.986782"
       width="46.506023"
       y="53.087532"
       x="-46.552208" />
    <rect
       id="rect944"
       height="22.986782"
       width="46.506023"
       y="53.087532"
       x="-46.552208" />
    <filter
       inkscape:collect="always"
       style="color-interpolation-filters:sRGB"
       id="filter1521"
       x="-0.00027324225"
       width="1.0005465"
       y="-0.0010022349"
       height="1.0020045">
      <feGaussianBlur
         inkscape:collect="always"
         stdDeviation="0.003737196"
         id="feGaussianBlur1523" />
    </filter>
  </defs>
  <sodipodi:namedview
     id="base"
     pagecolor="#ffffff"
     bordercolor="#666666"
     borderopacity="1.0"
     inkscape:pageopacity="0.0"
     inkscape:pageshadow="2"
     inkscape:zoom="3.2842148"
     inkscape:cx="113.64279"
     inkscape:cy="342.33931"
     inkscape:document-units="mm"
     inkscape:current-layer="layer1"
     showgrid="false"
     inkscape:window-width="1920"
     inkscape:window-height="1016"
     inkscape:window-x="0"
     inkscape:window-y="27"
     inkscape:window-maximized="1"
     inkscape:document-rotation="0" />
  <metadata
     id="metadata5">
    <rdf:RDF>
      <cc:Work
         rdf:about="">
        <dc:format>image/svg+xml</dc:format>
        <dc:type
           rdf:resource="http://purl.org/dc/dcmitype/StillImage" />
        <dc:title />
      </cc:Work>
    </rdf:RDF>
  </metadata>
  <g
     inkscape:label="background"
     inkscape:groupmode="layer"
     id="layer1"
     transform="translate(0,-168.5)"
     style="display:inline">
    <rect
       style="display:inline;fill:#e9e9e9;fill-opacity:1;stroke-width:0.264583"
       id="rect986"
       width="68.813698"
       height="23.042625"
       x="-4.9727182"
       y="77.969666"
       rx="1.0000006"
       ry="1.0000006"
       inkscape:label="rect986" />
    <text
       xml:space="preserve"
       id="text18569"
       style="font-style:normal;font-variant:normal;font-weight:normal;font-stretch:normal;font-size:10.5833px;line-height:1.25;font-family:'Noto Mono';-inkscape-font-specification:'Noto Mono';letter-spacing:0px;word-spacing:0px;white-space:pre;shape-inside:url(#rect18571);display:inline;fill:#000000;fill-opacity:1;stroke:none;"><tspan
         style="visibility:hidden"
         x="72.408203"
         y="196.28925"><tspan
           style="font-style:normal;font-variant:normal;font-weight:normal;font-stretch:normal;font-family:'Noto Mono';-inkscape-font-specification:'Noto Mono'">d</tspan></tspan></text>
    <path
       inkscape:connector-curvature="0"
       style="display:inline;fill:#000000;fill-opacity:1;fill-rule:nonzero;stroke:none;stroke-width:0.530778"
       d="M 0,168.5 H 91.44 V 297 H 0 Z m 0,0"
       id="path42631" />
    <rect
       style="display:inline;fill:#4d4d4d;fill-opacity:1;stroke-width:0.146755"
       id="rect1037"
       width="62.279999"
       height="16"
       x="2"
       y="247"
       rx="1"
       ry="1" />
    <text
       xml:space="preserve"
       id="text18575"
       style="font-style:normal;font-variant:normal;font-weight:normal;font-stretch:normal;font-size:10.5833px;line-height:1.25;font-family:'Noto Mono';-inkscape-font-specification:'Noto Mono';letter-spacing:0px;word-spacing:0px;white-space:pre;shape-inside:url(#rect18577);fill:#000000;fill-opacity:1;stroke:none;" />
    <path
       d="M 85.11174,185.42616 H 83.18558 V 183.5 h -1.25942 v 1.92616 H 80 v 1.25941 h 1.92616 v 1.92616 h 1.25942 v -1.92616 h 1.92616 z"
       style="font-style:normal;font-variant:normal;font-weight:bold;font-stretch:normal;font-size:10.5833px;line-height:1.25;font-family:'Nimbus Sans';-inkscape-font-specification:'Nimbus Sans Bold';letter-spacing:0px;word-spacing:0px;display:inline;fill:#e9e9e9;fill-opacity:1;stroke:none;stroke-width:0.264583"
       id="path18720" />
    <g
       aria-label="clock out"
       transform="translate(105.43628,47.13266)"
       id="text18807"
       style="font-style:normal;font-weight:normal;font-size:2.82222px;line-height:1.25;font-family:sans-serif;letter-spacing:0px;word-spacing:0px;white-space:pre;shape-inside:url(#rect18809);fill:#000000;fill-opacity:1;stroke:none">
      <path
         d="m -22.499838,213.87726 q 0.06773,0 0.06773,0.0875 0,0.0677 -0.141111,0.24271 -0.141111,0.17215 -0.245533,0.24271 -0.251178,0.16651 -0.451555,0.16651 -0.146756,0 -0.316089,-0.0762 -0.172155,-0.0762 -0.248355,-0.20602 -0.0762,-0.13265 -0.09313,-0.381 0,-0.0254 -0.0056,-0.0734 -0.0028,-0.0508 -0.0028,-0.0734 0,-0.21731 0.222955,-0.44591 0.225778,-0.23142 0.403578,-0.27375 0.07902,-0.0198 0.206022,-0.0198 0.242711,0 0.423333,0.14676 0.180622,0.14675 0.180622,0.29915 0,0.0508 -0.03104,0.096 -0.02822,0.0452 -0.0762,0.0452 -0.01129,0 -0.0254,-0.003 -0.01411,-0.003 -0.04516,-0.031 -0.02822,-0.0282 -0.03387,-0.079 -0.0028,-0.0198 -0.03387,-0.0677 -0.02822,-0.048 -0.05645,-0.0762 -0.03387,-0.0367 -0.05362,-0.0508 -0.01693,-0.0141 -0.1016,-0.031 -0.08467,-0.0198 -0.2286,-0.0198 -0.107244,0 -0.160866,0.0339 -0.05362,0.031 -0.138289,0.13829 -0.211667,0.26246 -0.211667,0.46849 0,0.10724 0.02822,0.18062 0.02822,0.0705 0.04798,0.0903 0.01976,0.0198 0.07902,0.0677 0.07902,0.0677 0.121355,0.0875 0.04233,0.0169 0.118533,0.0169 0.242711,0 0.544689,-0.32173 0.169333,-0.18062 0.256822,-0.18062 z"
         style="font-style:normal;font-variant:normal;font-weight:bold;font-stretch:normal;font-size:2.82222px;font-family:Purisa;-inkscape-font-specification:'Purisa Bold';fill:#e9e9e9;fill-opacity:1"
         id="path18830" />
      <path
         d="m -22.045196,211.85272 q 0,-0.20602 0.01693,-0.31609 0.01693,-0.11007 0.03951,-0.13829 0.0254,-0.031 0.06773,-0.031 0.06773,0 0.08185,0.0564 0.01411,0.0593 0.05927,0.71967 0.04798,0.6604 0.08749,1.28411 0.04233,0.62371 0.04233,0.63782 0,0.0988 -0.107245,0.0988 -0.09595,0 -0.124177,-0.11571 -0.0254,-0.11854 -0.06491,-0.68862 -0.04516,-0.60114 -0.08184,-1.04705 -0.01693,-0.23706 -0.01693,-0.46002 z"
         style="font-style:normal;font-variant:normal;font-weight:bold;font-stretch:normal;font-size:2.82222px;font-family:Purisa;-inkscape-font-specification:'Purisa Bold';fill:#e9e9e9;fill-opacity:1"
         id="path18832" />
      <path
         d="m -20.955202,213.33257 q 0.237067,-0.2032 0.403578,-0.26811 0.169333,-0.0649 0.423333,-0.0649 0.392288,0 0.491066,0.22013 0.05644,0.12418 0.05644,0.30762 0,0.29069 -0.141111,0.59267 -0.138288,0.30198 -0.352777,0.42333 -0.208844,0.11571 -0.443089,0.11571 -0.344311,0 -0.524933,-0.2032 -0.127,-0.14111 -0.166511,-0.23988 -0.03669,-0.1016 -0.03669,-0.2794 0,-0.35278 0.290688,-0.60396 z m 0.510822,1.0922 q 0.231422,0 0.426155,-0.29351 0.197556,-0.29633 0.197556,-0.67169 0,-0.0395 -0.0085,-0.0621 -0.0056,-0.0226 -0.01411,-0.031 -0.0085,-0.0113 -0.03105,-0.0282 -0.101599,-0.0734 -0.214488,-0.0734 -0.01693,0 -0.04798,0.006 -0.02822,0.003 -0.08749,0.0113 -0.05644,0.006 -0.124178,0.0113 -0.09313,0.008 -0.152399,0.0367 -0.05644,0.0254 -0.146756,0.1016 -0.169333,0.14393 -0.242711,0.26529 -0.07056,0.11853 -0.07056,0.25964 0,0.20602 0.143933,0.33867 0.143933,0.12982 0.372533,0.12982 z"
         style="font-style:normal;font-variant:normal;font-weight:bold;font-stretch:normal;font-size:2.82222px;font-family:Purisa;-inkscape-font-specification:'Purisa Bold';fill:#e9e9e9;fill-opacity:1"
         id="path18834" />
      <path
         d="m -17.847585,213.87726 q 0.06773,0 0.06773,0.0875 0,0.0677 -0.141111,0.24271 -0.141111,0.17215 -0.245533,0.24271 -0.251178,0.16651 -0.451555,0.16651 -0.146756,0 -0.316089,-0.0762 -0.172155,-0.0762 -0.248355,-0.20602 -0.0762,-0.13265 -0.09313,-0.381 0,-0.0254 -0.0056,-0.0734 -0.0028,-0.0508 -0.0028,-0.0734 0,-0.21731 0.222955,-0.44591 0.225778,-0.23142 0.403578,-0.27375 0.07902,-0.0198 0.206022,-0.0198 0.242711,0 0.423333,0.14676 0.180622,0.14675 0.180622,0.29915 0,0.0508 -0.03104,0.096 -0.02822,0.0452 -0.0762,0.0452 -0.01129,0 -0.0254,-0.003 -0.01411,-0.003 -0.04516,-0.031 -0.02822,-0.0282 -0.03387,-0.079 -0.0028,-0.0198 -0.03387,-0.0677 -0.02822,-0.048 -0.05644,-0.0762 -0.03387,-0.0367 -0.05362,-0.0508 -0.01693,-0.0141 -0.1016,-0.031 -0.08467,-0.0198 -0.2286,-0.0198 -0.107244,0 -0.160866,0.0339 -0.05362,0.031 -0.138289,0.13829 -0.211666,0.26246 -0.211666,0.46849 0,0.10724 0.02822,0.18062 0.02822,0.0705 0.04798,0.0903 0.01976,0.0198 0.07902,0.0677 0.07902,0.0677 0.121355,0.0875 0.04233,0.0169 0.118533,0.0169 0.242711,0 0.544689,-0.32173 0.169333,-0.18062 0.256822,-0.18062 z"
         style="font-style:normal;font-variant:normal;font-weight:bold;font-stretch:normal;font-size:2.82222px;font-family:Purisa;-inkscape-font-specification:'Purisa Bold';fill:#e9e9e9;fill-opacity:1"
         id="path18836" />
      <path
         d="m -16.320499,214.52637 q -0.07056,-0.006 -0.166511,-0.0677 -0.09313,-0.0649 -0.110067,-0.0649 -0.03104,0 -0.0508,-0.0113 -0.01693,-0.0113 -0.01976,-0.0226 l -0.0056,-0.0113 q -0.03951,-0.0282 -0.366888,-0.12982 l -0.107245,-0.0339 0.01693,0.16933 q 0.01129,0.096 0.01129,0.13829 0,0.1524 -0.107244,0.1524 -0.118533,0 -0.146755,-0.13546 -0.02822,-0.13547 -0.04798,-0.63783 -0.02258,-0.46002 -0.04233,-0.56726 -0.05927,-0.3048 -0.05927,-0.79022 0,-0.14676 0.1016,-0.14676 0.07902,0 0.112889,0.0875 0.01693,0.0423 0.03951,0.25118 0.02258,0.20884 0.04798,0.46284 0.0254,0.254 0.04233,0.3556 l 0.01411,0.0903 0.3048,-0.26811 q 0.02258,-0.0197 0.05927,-0.0536 0.03951,-0.0339 0.05927,-0.0508 0.02258,-0.0198 0.05362,-0.048 0.03387,-0.0282 0.0508,-0.0423 0.01976,-0.0169 0.04516,-0.0367 0.02822,-0.0198 0.04516,-0.031 0.01693,-0.0113 0.03387,-0.0226 0.01976,-0.0113 0.03387,-0.0141 0.01411,-0.006 0.0254,-0.006 0.04516,0.006 0.07338,0.0423 0.03104,0.0339 0.03104,0.0734 0,0.0339 -0.01693,0.0508 -0.01411,0.0169 -0.05927,0.0564 -0.04516,0.0367 -0.08749,0.096 -0.118534,0.16651 -0.505178,0.42898 -0.107244,0.0734 -0.112889,0.11007 0,0.0197 0.03387,0.0339 l 0.341489,0.13547 0.01976,0.0113 q 0.02258,0.008 0.04516,0.0198 0.0254,0.008 0.06209,0.0254 0.03669,0.0169 0.07055,0.0367 0.03669,0.0169 0.0762,0.0395 0.04233,0.0226 0.0762,0.0452 0.03669,0.0198 0.06773,0.0452 0.03387,0.0254 0.05645,0.048 0.0254,0.0226 0.03951,0.048 0.01411,0.0226 0.01411,0.0452 0,0.0423 -0.0254,0.0677 -0.0254,0.0254 -0.06773,0.0254 z"
         style="font-style:normal;font-variant:normal;font-weight:bold;font-stretch:normal;font-size:2.82222px;font-family:Purisa;-inkscape-font-specification:'Purisa Bold';fill:#e9e9e9;fill-opacity:1"
         id="path18838" />
    </g>
    <path
       d="m 80.88241,212.97525 c 0.381936,0.39277 0.869247,0.58915 1.468488,0.58915 0.678276,0 1.218262,-0.25923 1.63971,-0.7934 0.421449,-0.53417 0.671685,-1.35113 0.671685,-2.19167 0,-0.73055 -0.184391,-1.46897 -0.480721,-1.94815 l 0.586079,-0.77769 -0.342423,-0.35349 -0.546576,0.7227 c -0.441201,-0.46348 -0.902162,-0.65986 -1.527754,-0.65986 -0.691437,0 -1.231423,0.25923 -1.64629,0.79339 -0.434619,0.54204 -0.678266,1.35114 -0.678266,2.20739 0,0.76984 0.177792,1.43756 0.539977,2.01886 L 80,213.32874 l 0.335843,0.36135 z m 2.647237,-3.49568 c 0.09219,0.30637 0.14487,0.69128 0.14487,1.06834 0,1.22546 -0.520225,2.01099 -1.330199,2.01099 -0.342433,0 -0.658524,-0.14139 -0.862658,-0.37706 z m -2.324566,2.26238 c -0.125118,-0.3378 -0.190963,-0.72271 -0.190963,-1.15476 0,-1.23331 0.520225,-2.01886 1.33678,-2.01886 0.368775,0 0.678276,0.14927 0.921923,0.45563 z"
       style="font-style:normal;font-variant:normal;font-weight:bold;font-stretch:normal;font-size:10.5833px;line-height:1.25;font-family:'Nimbus Sans';-inkscape-font-specification:'Nimbus Sans Bold';letter-spacing:0px;word-spacing:0px;display:inline;fill:#e9e9e9;fill-opacity:1;stroke:none;stroke-width:0.179808"
       id="path18724" />
    <path
       d="M 82.87866,233.5 H 80 v 1.42875 h 2.87866 z"
       style="font-style:normal;font-variant:normal;font-weight:bold;font-stretch:normal;font-size:10.5833px;line-height:1.25;font-family:'Nimbus Sans';-inkscape-font-specification:'Nimbus Sans Bold';letter-spacing:0px;word-spacing:0px;display:inline;fill:#e9e9e9;fill-opacity:1;stroke:none;stroke-width:0.264583"
       id="path18722" />
    <rect
       ry="1"
       rx="1"
       y="267"
       x="2"
       height="16"
       width="62.279999"
       id="rect1037-0"
       style="display:inline;fill:#4d4d4d;fill-opacity:1;stroke-width:0.146755" />
    <rect
       style="display:inline;fill:#666666;fill-opacity:1;stroke-width:0.591315"
       id="rect1054-1-7"
       width="48"
       height="14"
       x="3"
       y="268"
       rx="1"
       ry="1" />
    <g
       transform="matrix(0.49999629,0,0,0.5,6.7299383,142.25)"
       aria-label="length step"
       id="text18780"
       style="font-style:normal;font-weight:normal;font-size:5.64444px;line-height:1.25;font-family:sans-serif;letter-spacing:0px;word-spacing:0px;white-space:pre;shape-inside:url(#rect18782);fill:#000000;fill-opacity:1;stroke:none">
      <path
         d="m 62.455899,277.45018 q 0,-0.096 0.0508,-0.16369 0.0508,-0.0734 0.124178,-0.0734 0.141111,0 0.248355,0.19755 0.06209,0.11853 0.270933,0.22578 0.208845,0.1016 0.389467,0.1016 0.225777,0 0.412044,-0.24836 0.191911,-0.254 0.191911,-0.38946 0,-0.0226 -0.01693,-0.0621 -0.01693,-0.0452 -0.09596,-0.11854 -0.07338,-0.0734 -0.191911,-0.10724 -0.191911,-0.0564 -0.417689,-0.14111 -0.225777,-0.0903 -0.333021,-0.11289 -0.169334,-0.0339 -0.445911,-0.23707 -0.276578,-0.2032 -0.276578,-0.42897 0,-0.22578 0.321733,-0.58138 0.321733,-0.3556 0.795866,-0.4572 l 0.564444,-0.0508 q 0.1524,0 0.231422,0.0395 0.07902,0.0339 0.197556,0.16933 0.191911,0.22014 0.191911,0.32174 0,0.14111 -0.146756,0.14111 -0.124177,0 -0.253999,-0.12982 -0.124178,-0.13547 -0.310445,-0.13547 -0.253999,0 -0.530577,0.14675 -0.270933,0.14112 -0.428978,0.29916 -0.158044,0.1524 -0.158044,0.22013 0,0.0452 0.06209,0.10725 0.06773,0.0564 0.220133,0.13546 0.158044,0.079 0.372533,0.14112 0.592666,0.17497 0.818444,0.34431 0.225778,0.16933 0.225778,0.47413 0,0.26529 -0.09596,0.47978 -0.07902,0.18626 -0.310444,0.38382 -0.231422,0.2032 -0.474133,0.2032 -0.174978,0 -0.4572,-0.0508 -0.276577,-0.0452 -0.428977,-0.11289 -0.124178,-0.0621 -0.220133,-0.22013 -0.09596,-0.16369 -0.09596,-0.31045 z"
         style="font-style:normal;font-variant:normal;font-weight:bold;font-stretch:normal;font-size:5.64444px;font-family:Purisa;-inkscape-font-specification:'Purisa Bold';fill:#e9e9e9;fill-opacity:1"
         id="path18798" />
      <path
         d="m 66.479944,274.74085 q -0.180622,0.0113 -0.496711,0.0677 -0.310444,0.0508 -0.417688,0.0508 -0.242711,0 -0.242711,-0.19191 0,-0.1524 0.214489,-0.23142 0.214488,-0.079 0.507999,-0.12418 0.299156,-0.0451 0.383822,-0.0903 0.04516,-0.0452 0.04516,-0.24271 0,-0.2032 -0.0508,-0.53058 -0.0508,-0.32737 -0.0508,-0.59266 0,-0.18062 0.09595,-0.26529 0.09596,-0.0903 0.208845,-0.0903 0.124177,0 0.174977,0.1016 0.02822,0.0847 0.09596,0.73942 0.06773,0.64911 0.08467,0.75071 0.04516,-0.006 0.299156,-0.0452 0.259644,-0.0452 0.39511,-0.0452 0.191911,0 0.270934,0.0621 0.07902,0.0621 0.07902,0.13546 0,0.10725 -0.146756,0.18063 -0.146755,0.0734 -0.530577,0.16933 l -0.321733,0.0508 0.04516,0.85795 q 0.04516,0.79587 0.158045,1.49014 0.112888,0.69426 0.112888,0.80151 0,0.24835 -0.259644,0.24835 -0.1524,0 -0.225777,-0.0564 -0.169334,-0.1524 -0.169334,-0.63782 0,-0.19756 -0.02258,-0.40076 -0.02258,-0.20884 -0.07902,-0.64346 -0.0508,-0.44027 -0.09596,-0.90876 -0.05644,-0.58702 -0.06209,-0.6096 z"
         style="font-style:normal;font-variant:normal;font-weight:bold;font-stretch:normal;font-size:5.64444px;font-family:Purisa;-inkscape-font-specification:'Purisa Bold';fill:#e9e9e9;fill-opacity:1"
         id="path18800" />
      <path
         d="m 71.129023,275.57623 q 0,-0.0452 -0.248356,-0.23142 -0.180622,-0.13547 -0.259644,-0.16934 -0.07338,-0.0339 -0.214489,-0.0339 -0.282222,0 -0.417688,0.0452 -0.129822,0.0395 -0.276578,0.18062 -0.434622,0.42334 -0.440266,0.54751 0.02258,0.006 0.09596,0.006 0.547511,0 1.518355,-0.19191 0.242711,-0.0452 0.242711,-0.1524 z m 0.728132,0.89182 q 0.1016,0 0.1016,0.11853 0,0.12983 -0.163688,0.37254 -0.163689,0.23706 -0.327378,0.38382 -0.632177,0.54186 -1.303866,0.54186 -0.553155,0 -0.999066,-0.43462 -0.44591,-0.43462 -0.44591,-1.19662 0,-0.21449 0.06209,-0.41204 0.118533,-0.34996 0.530577,-0.72814 0.412044,-0.38382 0.790222,-0.38382 0.101599,0 0.299155,0.0169 0.3048,0.0226 0.428977,0.0621 0.129822,0.0339 0.293511,0.14112 0.180622,0.11853 0.327378,0.33866 0.146755,0.21449 0.146755,0.37818 0,0.21449 -0.174977,0.31609 -0.174978,0.1016 -0.592667,0.18626 -0.54751,0.10725 -1.128888,0.14112 l -0.491066,0.0226 v 0.14676 q 0,0.20884 0.09031,0.36689 0.09596,0.15804 0.3048,0.33302 0.299155,0.24835 0.609599,0.24835 0.248356,0 0.524933,-0.14675 0.276578,-0.1524 0.468489,-0.33302 0.197555,-0.18063 0.378177,-0.32738 0.186267,-0.1524 0.270933,-0.1524 z"
         style="font-style:normal;font-variant:normal;font-weight:bold;font-stretch:normal;font-size:5.64444px;font-family:Purisa;-inkscape-font-specification:'Purisa Bold';fill:#e9e9e9;fill-opacity:1"
         id="path18802" />
      <path
         d="m 72.550981,275.46334 q 0,-0.10725 0.158044,-0.24271 0.158044,-0.13547 0.158044,-0.20885 0,-0.12417 0.07902,-0.29351 0.07902,-0.16933 0.248356,-0.16933 0.112889,0 0.180622,0.0903 0.07338,0.0847 0.1016,0.0847 0.0508,0 0.440266,-0.0847 0.389466,-0.0903 0.699911,-0.0903 0.259644,0 0.570088,0.0621 0.654755,0.14111 0.654755,0.77329 0,0.47977 -0.3556,1.19662 -0.24271,0.49671 -0.620888,0.76764 -0.378177,0.27094 -0.812799,0.27094 -0.112889,0 -0.186267,-0.0113 l -0.169333,-0.0226 0.04516,0.19191 q 0.220134,0.92569 0.220134,1.20227 0,0.24271 -0.254,0.24271 -0.163689,0 -0.242711,-0.096 -0.1016,-0.12982 -0.237067,-0.79022 -0.129822,-0.65476 -0.225777,-1.69333 -0.03387,-0.36125 -0.05645,-0.5588 -0.01693,-0.2032 -0.03951,-0.29916 -0.02258,-0.1016 -0.03951,-0.12418 -0.01693,-0.0226 -0.0508,-0.0226 -0.265288,0 -0.265288,-0.17498 z m 2.590798,-0.32738 q -0.06773,-0.0339 -0.333022,-0.0339 -0.547511,0 -0.976489,0.12417 l -0.355599,0.10725 0.01129,0.31044 q 0.01693,0.42898 0.06773,0.92005 0.05644,0.49106 0.1016,0.49106 0.112889,0 0.237066,0.0734 0.124178,0.0677 0.180622,0.0677 0.214489,0 0.508,-0.27658 0.299155,-0.27657 0.513644,-0.67168 0.214489,-0.40076 0.214489,-0.70556 0,-0.11289 -0.03951,-0.20884 -0.03951,-0.1016 -0.07902,-0.14111 -0.03387,-0.0452 -0.0508,-0.0564 z"
         style="font-style:normal;font-variant:normal;font-weight:bold;font-stretch:normal;font-size:5.64444px;font-family:Purisa;-inkscape-font-specification:'Purisa Bold';fill:#e9e9e9;fill-opacity:1"
         id="path18804" />
    </g>
    <rect
       ry="1"
       rx="1.25"
       y="268"
       x="80"
       height="14"
       width="10"
       id="rect1054-1-7-1"
       style="display:inline;fill:#666666;fill-opacity:1;stroke-width:0.269897" />
    <path
       d="m 82.790704,279.89138 q 0.237075,-0.2032 0.403592,-0.26811 0.169339,-0.0649 0.423348,-0.0649 0.392302,0 0.491083,0.22013 0.05644,0.12418 0.05644,0.30762 0,0.29069 -0.141116,0.59267 -0.138293,0.30197 -0.352789,0.42333 -0.208852,0.11571 -0.443105,0.11571 -0.344323,0 -0.524951,-0.2032 -0.127004,-0.14111 -0.166517,-0.23989 -0.03669,-0.1016 -0.03669,-0.2794 0,-0.35278 0.290699,-0.60395 z m 0.51084,1.0922 q 0.23143,0 0.42617,-0.29351 0.197563,-0.29634 0.197563,-0.67169 0,-0.0395 -0.0085,-0.0621 -0.0056,-0.0226 -0.01411,-0.0311 -0.0085,-0.0113 -0.03104,-0.0282 -0.101604,-0.0734 -0.214496,-0.0734 -0.01693,0 -0.04798,0.006 -0.02822,0.003 -0.08749,0.0113 -0.05644,0.006 -0.124183,0.0113 -0.09313,0.008 -0.152404,0.0367 -0.05645,0.0254 -0.146761,0.1016 -0.169339,0.14393 -0.24272,0.26528 -0.07055,0.11854 -0.07055,0.25965 0,0.20602 0.143938,0.33866 0.143938,0.12983 0.372546,0.12983 z"
       style="font-style:normal;font-variant:normal;font-weight:bold;font-stretch:normal;font-size:2.82222px;line-height:1.25;font-family:Purisa;-inkscape-font-specification:'Purisa Bold';letter-spacing:0px;word-spacing:0px;white-space:pre;shape-inside:url(#rect18809);display:inline;fill:#e9e9e9;fill-opacity:1;stroke:none;stroke-width:1.00002"
       id="path18840" />
    <path
       d="m 84.656609,279.64302 q 0.0508,0 0.09031,0.0423 0.04233,0.0423 0.04233,0.12982 0,0.031 -0.0056,0.0931 -0.0056,0.0621 -0.0056,0.13829 0,0.0734 0.0085,0.26529 0.0085,0.18909 0.03669,0.44309 0.03104,0.254 0.0762,0.28786 0.01129,0.008 0.02822,0.008 0.05644,0 0.186273,-0.1016 0.169339,-0.12982 0.327389,-0.41487 0.160872,-0.28504 0.222963,-0.57008 0.04798,-0.21732 0.08467,-0.28505 0.03951,-0.0677 0.104427,-0.0677 0.0508,0 0.07902,0.031 0.03104,0.031 0.03104,0.0819 0,0.0395 -0.04233,0.31609 -0.03951,0.27657 -0.03951,0.39793 0,0.16651 0.07055,0.41769 0.07338,0.25117 0.07338,0.28786 -0.0085,0.0621 -0.05362,0.0875 -0.02822,0.0169 -0.06209,0.0169 -0.07338,0 -0.124183,-0.11007 -0.04798,-0.11289 -0.08467,-0.26247 -0.03669,-0.14958 -0.06209,-0.18909 -0.0085,0.008 -0.02258,0.0282 -0.01129,0.0169 -0.03104,0.0452 -0.01693,0.0254 -0.03105,0.0452 -0.129826,0.19191 -0.301987,0.33302 -0.169339,0.13829 -0.301989,0.13829 -0.203207,0 -0.273764,-0.127 -0.07056,-0.127 -0.115715,-0.54469 -0.01976,-0.1778 -0.01976,-0.46849 0,-0.26529 0.0254,-0.37818 0.0254,-0.11571 0.09031,-0.11571 z"
       style="font-style:normal;font-variant:normal;font-weight:bold;font-stretch:normal;font-size:2.82222px;line-height:1.25;font-family:Purisa;-inkscape-font-specification:'Purisa Bold';letter-spacing:0px;word-spacing:0px;white-space:pre;shape-inside:url(#rect18809);display:inline;fill:#e9e9e9;fill-opacity:1;stroke:none;stroke-width:1.00002"
       id="path18842" />
    <path
       d="m 86.895281,279.62044 q -0.09031,0.006 -0.248363,0.0339 -0.155228,0.0254 -0.208852,0.0254 -0.12136,0 -0.12136,-0.0959 0,-0.0762 0.107248,-0.11572 0.107248,-0.0395 0.254009,-0.0621 0.149583,-0.0226 0.191917,-0.0452 0.02258,-0.0226 0.02258,-0.12136 0,-0.1016 -0.0254,-0.26528 -0.0254,-0.16369 -0.0254,-0.29634 0,-0.0903 0.04798,-0.13264 0.04798,-0.0452 0.104426,-0.0452 0.06209,0 0.08749,0.0508 0.01411,0.0423 0.04798,0.36971 0.03387,0.32456 0.04233,0.37536 0.02258,-0.003 0.149582,-0.0226 0.129828,-0.0226 0.197563,-0.0226 0.09595,0 0.135471,0.0311 0.03951,0.031 0.03951,0.0677 0,0.0536 -0.07338,0.0903 -0.07338,0.0367 -0.265298,0.0847 l -0.160872,0.0254 0.02258,0.42898 q 0.02258,0.39793 0.07902,0.74506 0.05645,0.34714 0.05645,0.40076 0,0.12418 -0.129826,0.12418 -0.0762,0 -0.112893,-0.0282 -0.08467,-0.0762 -0.08467,-0.31891 0,-0.0988 -0.01129,-0.20038 -0.01129,-0.10442 -0.03951,-0.32173 -0.0254,-0.22013 -0.04798,-0.45438 -0.02822,-0.29351 -0.03104,-0.3048 z"
       style="font-style:normal;font-variant:normal;font-weight:bold;font-stretch:normal;font-size:2.82222px;line-height:1.25;font-family:Purisa;-inkscape-font-specification:'Purisa Bold';letter-spacing:0px;word-spacing:0px;white-space:pre;shape-inside:url(#rect18809);display:inline;fill:#e9e9e9;fill-opacity:1;stroke:none;stroke-width:1.00002"
       id="path18844" />
    <rect
       ry="1"
       rx="1"
       y="248"
       x="3"
       height="14"
       width="48"
       id="rect1054-1"
       style="display:inline;fill:#666666;fill-opacity:1;stroke-width:0.591316" />
    <rect
       style="fill:#000000;fill-opacity:1;stroke-width:0.29033"
       id="rect1054"
       width="18"
       height="9"
       x="32"
       y="249"
       rx="1"
       ry="1" />
    <path
       d="m 37,258.98547 q 0,-0.20602 0.01694,-0.31608 0.01694,-0.11007 0.03951,-0.13829 0.0254,-0.0311 0.06773,-0.0311 0.06773,0 0.08184,0.0564 0.01411,0.0593 0.05927,0.71967 0.04798,0.6604 0.08749,1.28411 0.04234,0.62371 0.04234,0.63782 0,0.0988 -0.107245,0.0988 -0.09595,0 -0.124178,-0.11571 -0.0254,-0.11854 -0.06491,-0.68863 -0.04515,-0.60113 -0.08184,-1.04704 -0.01694,-0.23707 -0.01694,-0.46002 z"
       style="font-style:normal;font-variant:normal;font-weight:bold;font-stretch:normal;font-size:5.64444px;line-height:1.25;font-family:Purisa;-inkscape-font-specification:'Purisa Bold';letter-spacing:0px;word-spacing:0px;white-space:pre;shape-inside:url(#rect18782);display:inline;fill:#e9e9e9;fill-opacity:1;stroke:none;stroke-width:0.5"
       id="path18786" />
    <path
       d="m 38.990282,260.13694 q 0,-0.0226 -0.124177,-0.11571 -0.09031,-0.0677 -0.129823,-0.0847 -0.03669,-0.0169 -0.107244,-0.0169 -0.141111,0 -0.208844,0.0226 -0.06491,0.0198 -0.138289,0.0903 -0.217311,0.21167 -0.220133,0.27376 0.01129,0.003 0.04798,0.003 0.273755,0 0.759177,-0.096 0.121355,-0.0226 0.121355,-0.0762 z m 0.364067,0.44591 q 0.0508,0 0.0508,0.0593 0,0.0649 -0.08185,0.18626 -0.08184,0.11854 -0.163689,0.19191 -0.316088,0.27094 -0.651932,0.27094 -0.276578,0 -0.499533,-0.21731 -0.222956,-0.21731 -0.222956,-0.59831 0,-0.10725 0.03105,-0.20603 0.05927,-0.17497 0.265289,-0.36406 0.206022,-0.19191 0.395111,-0.19191 0.0508,0 0.149577,0.008 0.1524,0.0113 0.214489,0.031 0.06491,0.017 0.146756,0.0705 0.09031,0.0593 0.163688,0.16934 0.07338,0.10724 0.07338,0.18909 0,0.10724 -0.08749,0.15804 -0.08749,0.0508 -0.296333,0.0931 -0.273755,0.0536 -0.564444,0.0706 l -0.245533,0.0113 v 0.0734 q 0,0.10443 0.04515,0.18345 0.04798,0.079 0.1524,0.16651 0.149577,0.12418 0.3048,0.12418 0.124177,0 0.262466,-0.0734 0.138289,-0.0762 0.234244,-0.16651 0.09878,-0.0903 0.189089,-0.16369 0.09313,-0.0762 0.135467,-0.0762 z"
       style="font-style:normal;font-variant:normal;font-weight:bold;font-stretch:normal;font-size:5.64444px;line-height:1.25;font-family:Purisa;-inkscape-font-specification:'Purisa Bold';letter-spacing:0px;word-spacing:0px;white-space:pre;shape-inside:url(#rect18782);display:inline;fill:#e9e9e9;fill-opacity:1;stroke:none;stroke-width:0.5"
       id="path18788" />
    <path
       d="m 39.887528,259.78698 q 0,-0.14675 0.09313,-0.14675 0.06209,0.003 0.08184,0.0762 0.01976,0.0734 0.05645,0.41204 0.0028,0.0254 0.0028,0.0395 0.0028,0.0141 0.0056,0.0367 0.0028,0.0226 0.0056,0.0423 l 0.03951,0.32173 0.03105,-0.0931 q 0.05927,-0.18344 0.1016,-0.26811 0.04515,-0.0847 0.163689,-0.23989 0.228599,-0.30198 0.386644,-0.30198 0.104422,0 0.180622,0.11571 0.09031,0.127 0.110066,0.254 0.02258,0.127 0.03104,0.58138 0.0056,0.28787 0.0056,0.34996 0,0.18626 -0.0254,0.254 -0.0254,0.0649 -0.104422,0.0649 -0.05362,0 -0.07055,-0.0282 -0.01694,-0.031 -0.01694,-0.12136 0,-0.0423 0.0056,-0.17498 0.0056,-0.13264 0.0056,-0.22013 0,-0.23989 -0.01976,-0.44873 -0.01976,-0.20885 -0.04516,-0.26247 -0.01129,-0.0226 -0.02822,-0.0423 -0.01694,-0.0226 -0.03105,-0.0339 -0.01129,-0.0113 -0.01693,-0.0113 -0.04516,0 -0.186267,0.18909 -0.138289,0.18909 -0.234244,0.38664 -0.09878,0.20885 -0.132644,0.3048 -0.03105,0.096 -0.0508,0.25965 -0.03104,0.26246 -0.0508,0.29069 -0.01411,0.017 -0.03104,0.017 -0.04234,-0.006 -0.09031,-0.0593 -0.0254,-0.0282 -0.03951,-0.0706 -0.01129,-0.0451 -0.01976,-0.13546 -0.0085,-0.0931 -0.01411,-0.19756 -0.0056,-0.10724 -0.02258,-0.30762 -0.01694,-0.2032 -0.04234,-0.42051 -0.03386,-0.33867 -0.03386,-0.41205 z"
       style="font-style:normal;font-variant:normal;font-weight:bold;font-stretch:normal;font-size:5.64444px;line-height:1.25;font-family:Purisa;-inkscape-font-specification:'Purisa Bold';letter-spacing:0px;word-spacing:0px;white-space:pre;shape-inside:url(#rect18782);display:inline;fill:#e9e9e9;fill-opacity:1;stroke:none;stroke-width:0.5"
       id="path18790" />
    <path
       d="m 41.879662,260.55181 q 0,0.14675 0.0762,0.27375 0.07902,0.12418 0.197556,0.12418 0.169333,0 0.372533,-0.14958 0.206022,-0.14958 0.333022,-0.37818 0.07338,-0.13264 0.121355,-0.29915 0.0508,-0.16651 0.0508,-0.25682 0,-0.0282 -0.0056,-0.0395 -0.0508,-0.0254 -0.194733,-0.0254 -0.127,0 -0.225778,0.0254 -0.248355,0.0677 -0.488244,0.31891 -0.237066,0.25117 -0.237066,0.4064 z m 1.100666,1.17122 q 0.104422,0 0.104422,-0.0847 0,-0.21731 -0.01411,-0.35842 -0.01411,-0.13829 -0.03669,-0.23707 -0.01976,-0.0988 -0.0254,-0.15804 -0.0085,-0.13265 -0.01976,-0.20602 -0.07902,0.10442 -0.248355,0.23142 -0.169333,0.12418 -0.287866,0.16651 -0.138289,0.048 -0.301978,0.048 -0.1016,0 -0.166511,-0.0226 -0.06209,-0.0226 -0.155222,-0.0988 -0.08749,-0.0734 -0.127,-0.13547 -0.03669,-0.0649 -0.05644,-0.16651 -0.01976,-0.10442 -0.01976,-0.1778 0,-0.11289 0.104422,-0.29351 0.104422,-0.18344 0.1778,-0.27375 0.06773,-0.0847 0.245533,-0.18627 0.1778,-0.10442 0.313266,-0.14393 0.143933,-0.0451 0.327378,-0.0451 0.2286,0 0.380999,0.0762 0.155223,0.0762 0.155223,0.24271 0,0.0875 -0.04233,0.20884 -0.03951,0.11854 -0.03951,0.2032 0,0.0508 0.0056,0.14676 0.0085,0.0931 0.0254,0.31609 0.01976,0.22013 0.03387,0.44026 l 0.04233,0.5842 -0.112889,0.0903 q -0.08749,0.0734 -0.183445,0.0734 -0.169333,0 -0.406399,-0.0762 -0.234245,-0.0762 -0.4064,-0.18344 -0.169333,-0.10725 -0.169333,-0.18345 0,-0.0988 0.09313,-0.21166 0.09596,-0.11289 0.166511,-0.11289 0.107244,0 0.107244,0.079 0,0.0338 -0.02822,0.0847 -0.02822,0.0508 -0.02822,0.0903 0,0.0593 0.09596,0.11006 0.09878,0.0508 0.166511,0.0508 0.05644,0 0.158045,0.0565 0.104422,0.0564 0.172155,0.0564 z"
       style="font-style:normal;font-variant:normal;font-weight:bold;font-stretch:normal;font-size:5.64444px;line-height:1.25;font-family:Purisa;-inkscape-font-specification:'Purisa Bold';letter-spacing:0px;word-spacing:0px;white-space:pre;shape-inside:url(#rect18782);display:inline;fill:#e9e9e9;fill-opacity:1;stroke:none;stroke-width:0.5"
       id="path18792" />
    <path
       d="m 44.272508,259.71925 q -0.09031,0.006 -0.248355,0.0339 -0.155222,0.0254 -0.208844,0.0254 -0.121356,0 -0.121356,-0.096 0,-0.0762 0.107244,-0.11571 0.107245,-0.0395 0.254,-0.0621 0.149578,-0.0226 0.191911,-0.0452 0.02258,-0.0226 0.02258,-0.12136 0,-0.1016 -0.0254,-0.26529 -0.0254,-0.16369 -0.0254,-0.29633 0,-0.0903 0.04798,-0.13264 0.04798,-0.0452 0.104422,-0.0452 0.06209,0 0.08749,0.0508 0.01411,0.0423 0.04798,0.36971 0.03387,0.32456 0.04234,0.37536 0.02258,-0.003 0.149578,-0.0226 0.129822,-0.0226 0.197555,-0.0226 0.09596,0 0.135467,0.031 0.03951,0.031 0.03951,0.0677 0,0.0536 -0.07338,0.0903 -0.07338,0.0367 -0.265289,0.0847 l -0.160866,0.0254 0.02258,0.42898 q 0.02258,0.39793 0.07902,0.74506 0.05644,0.34714 0.05644,0.40076 0,0.12418 -0.129822,0.12418 -0.0762,0 -0.112889,-0.0283 -0.08467,-0.0762 -0.08467,-0.31891 0,-0.0988 -0.01129,-0.20038 -0.01129,-0.10442 -0.03951,-0.32173 -0.0254,-0.22013 -0.04798,-0.45438 -0.02822,-0.29351 -0.03104,-0.3048 z"
       style="font-style:normal;font-variant:normal;font-weight:bold;font-stretch:normal;font-size:5.64444px;line-height:1.25;font-family:Purisa;-inkscape-font-specification:'Purisa Bold';letter-spacing:0px;word-spacing:0px;white-space:pre;shape-inside:url(#rect18782);display:inline;fill:#e9e9e9;fill-opacity:1;stroke:none;stroke-width:0.5"
       id="path18794" />
    <path
       d="m 45.516137,260.99489 q 0,-0.2286 -0.05644,-0.90875 -0.05362,-0.68298 -0.05362,-0.88618 0,-0.16086 0.02258,-0.19473 0.04798,-0.079 0.09878,-0.079 0.0762,0 0.09595,0.11853 0.02258,0.11571 0.05644,0.61524 0.01976,0.26812 0.03105,0.43745 l 0.01411,0.19473 q 0.08185,-0.14111 0.321734,-0.34149 0.242711,-0.2032 0.338666,-0.2032 0.09596,0 0.189089,0.0819 0.09313,0.0818 0.121355,0.18062 0.0254,0.0875 0.0254,0.66322 v 0.0593 q 0,0.55033 -0.112889,0.55033 -0.05927,0 -0.0762,-0.0875 -0.01411,-0.0875 -0.02258,-0.36124 -0.0028,-0.0903 -0.0056,-0.14111 -0.01694,-0.53622 -0.07338,-0.6858 l -0.03104,-0.0875 -0.135467,0.11289 q -0.143933,0.11853 -0.259644,0.27375 -0.115711,0.15522 -0.158045,0.27376 -0.01976,0.0706 -0.04234,0.27375 -0.01975,0.2032 -0.05362,0.33867 -0.03387,0.13547 -0.09878,0.13547 -0.02822,0 -0.07055,-0.0338 -0.06491,-0.0508 -0.06491,-0.29916 z"
       style="font-style:normal;font-variant:normal;font-weight:bold;font-stretch:normal;font-size:5.64444px;line-height:1.25;font-family:Purisa;-inkscape-font-specification:'Purisa Bold';letter-spacing:0px;word-spacing:0px;white-space:pre;shape-inside:url(#rect18782);display:inline;fill:#e9e9e9;fill-opacity:1;stroke:none;stroke-width:0.5"
       id="path18796" />
    <g
       style="font-size:3.52778px;line-height:1.25;font-family:'ODINS SPEAR';-inkscape-font-specification:'ODINS SPEAR';letter-spacing:0px;word-spacing:0px;white-space:pre;shape-inside:url(#rect929);display:inline"
       id="text927"
       transform="translate(98.34106,205.13695)"
       aria-label="prime">
      <path
         id="path964"
         style="font-style:normal;font-variant:normal;font-weight:normal;font-stretch:normal;font-size:3.52778px;font-family:Purisa;-inkscape-font-specification:Purisa;fill:#e9e9e9;fill-opacity:1"
         d="m -45.24229,54.696558 q 0.09878,-0.08819 0.09878,-0.151694 0,-0.0635 0.03881,-0.151695 0.04233,-0.09172 0.119944,-0.09172 0.04939,0 0.08467,0.05644 0.03881,0.05292 0.08114,0.05292 0.03175,0 0.261056,-0.05292 0.229305,-0.05644 0.402167,-0.05644 0.144639,0 0.321028,0.03881 0.366889,0.08467 0.366889,0.455083 0,0.282223 -0.218723,0.751417 -0.144639,0.310445 -0.352778,0.479778 -0.208139,0.165806 -0.4445,0.165806 -0.06703,0 -0.102306,-0.0071 l -0.162278,-0.0247 0.03881,0.1905 q 0.127,0.599723 0.127,0.751417 0,0.07056 -0.02469,0.09172 -0.0247,0.02469 -0.08467,0.02469 -0.0635,0 -0.09172,-0.03175 -0.0247,-0.02822 -0.05292,-0.123472 -0.137583,-0.493889 -0.22225,-1.474612 -0.03881,-0.483306 -0.06703,-0.58914 -0.02469,-0.109361 -0.102306,-0.109361 -0.112889,0 -0.112889,-0.06703 0,-0.0388 0.09878,-0.127 z m 0.525639,1.171223 q 0.05292,0 0.123473,0.04586 0.07055,0.04233 0.119944,0.04233 0.141112,0 0.324556,-0.179917 0.183445,-0.183445 0.310445,-0.440972 0.130528,-0.257528 0.130528,-0.458612 0,-0.109361 -0.04939,-0.197556 -0.04586,-0.08819 -0.08114,-0.09878 -0.05997,-0.0247 -0.208139,-0.0247 -0.328084,0 -0.582084,0.08114 l -0.236361,0.07761 0.0071,0.225778 q 0.0071,0.225778 0.03881,0.575028 0.01764,0.208139 0.03881,0.278695 0.02117,0.07056 0.0635,0.07408 z" />
      <path
         id="path966"
         style="font-style:normal;font-variant:normal;font-weight:normal;font-stretch:normal;font-size:3.52778px;font-family:Purisa;-inkscape-font-specification:Purisa;fill:#e9e9e9;fill-opacity:1"
         d="m -41.784018,54.636586 q 0.05997,0 0.105833,0.03881 0.04586,0.03528 0.04586,0.05997 0,0.04233 -0.134055,0.09525 -0.218723,0.08819 -0.448028,0.426861 -0.225778,0.335139 -0.275167,0.649112 -0.05645,0.356306 -0.09172,0.465667 -0.03528,0.112889 -0.09172,0.112889 -0.04939,0 -0.07761,-0.03528 -0.02469,-0.03528 -0.03528,-0.07761 -0.0071,-0.04233 -0.01764,-0.155222 -0.0035,-0.02117 -0.0035,-0.03175 -0.08467,-0.889001 -0.08467,-1.404057 0,-0.183445 0.01411,-0.225778 0.03881,-0.112889 0.09878,-0.112889 0.05644,0 0.05644,0.09525 0,0.15875 0.04939,0.511528 0.04939,0.352778 0.07408,0.352778 0.03175,0 0.130528,-0.194028 0.123472,-0.229305 0.328083,-0.398639 0.208139,-0.172861 0.356306,-0.172861 z" />
      <path
         id="path968"
         style="font-style:normal;font-variant:normal;font-weight:normal;font-stretch:normal;font-size:3.52778px;font-family:Purisa;-inkscape-font-specification:Purisa;fill:#e9e9e9;fill-opacity:1"
         d="m -40.98889,54.340253 q 0.04939,-0.04233 0.08467,-0.04233 0.07408,0 0.105834,0.236361 0.03528,0.232834 0.0635,0.899584 0.01411,0.310445 0.01411,0.560917 0,0.250473 -0.02117,0.275167 -0.04233,0.05292 -0.105833,0.05292 -0.08819,0 -0.109362,-0.07408 -0.01764,-0.04586 -0.05292,-0.712612 -0.03528,-0.670278 -0.03528,-0.931334 0,-0.218722 0.05644,-0.264583 z m -0.02117,-0.829029 q 0,-0.04939 0.0388,-0.09878 0.04233,-0.04939 0.07408,-0.04939 0.03528,0 0.09525,0.04939 0.0635,0.04586 0.0635,0.119945 0,0.05292 -0.03175,0.09172 -0.02822,0.03528 -0.07761,0.03528 -0.05645,0 -0.109362,-0.04233 -0.05292,-0.04233 -0.05292,-0.105834 z" />
      <path
         id="path970"
         style="font-style:normal;font-variant:normal;font-weight:normal;font-stretch:normal;font-size:3.52778px;font-family:Purisa;-inkscape-font-specification:Purisa;fill:#e9e9e9;fill-opacity:1"
         d="m -39.904648,54.576614 q 0,-0.204611 0.05644,-0.204611 0.04586,0 0.09878,0.321028 0.05644,0.321028 0.07761,0.321028 0.0071,0 0.0247,-0.04233 0.01764,-0.04586 0.03881,-0.09878 0.02117,-0.05644 0.03528,-0.07056 0.03528,-0.04586 0.09525,-0.172861 0.07408,-0.151695 0.112889,-0.183445 0.03881,-0.03528 0.137583,-0.03528 0.109362,0 0.239889,0.151695 0.08467,0.09878 0.112889,0.183444 0.03175,0.08114 0.06703,0.296334 l 0.05645,0.331611 0.05997,-0.211667 q 0.08819,-0.306917 0.254,-0.529167 0.165806,-0.22225 0.306917,-0.22225 0.08819,0 0.162278,0.102306 0.07408,0.09878 0.105833,0.254 0.03175,0.141111 0.03175,0.638528 0,0.370417 -0.0035,0.5715 -0.0035,0.201084 -0.01764,0.292806 -0.01058,0.08819 -0.02117,0.102306 -0.01058,0.01764 -0.03881,0.02117 -0.01058,0.0035 -0.02469,0.0035 -0.03175,0 -0.03881,-0.09878 -0.0071,-0.09878 -0.01058,-0.553861 0,-1.111251 -0.169333,-1.111251 -0.09172,0 -0.239889,0.303389 -0.123473,0.250473 -0.20814,0.610306 -0.08467,0.359834 -0.102305,0.726723 -0.0035,0.08819 -0.02117,0.119945 -0.01411,0.03175 -0.04939,0.03175 -0.04233,0 -0.05644,-0.07408 -0.01058,-0.07055 -0.0247,-0.381 -0.02469,-0.5715 -0.07055,-0.800806 -0.04586,-0.232834 -0.169334,-0.419806 -0.09172,-0.130528 -0.134055,-0.130528 -0.04939,0 -0.109362,0.123472 -0.05997,0.119945 -0.197555,0.46214 -0.0635,0.165805 -0.0635,0.303389 0,0.08114 -0.03175,0.179917 -0.02822,0.09525 -0.03881,0.47625 -0.0071,0.356306 -0.02822,0.405695 -0.01411,0.04233 -0.05644,0.04233 -0.05644,0 -0.07761,-0.169334 -0.01764,-0.169333 -0.01764,-0.677333 0,-0.409223 -0.02822,-0.751417 -0.02469,-0.342195 -0.02469,-0.437445 z" />
      <path
         id="path972"
         style="font-style:normal;font-variant:normal;font-weight:normal;font-stretch:normal;font-size:3.52778px;font-family:Purisa;-inkscape-font-specification:Purisa;fill:#e9e9e9;fill-opacity:1"
         d="m -35.432306,55.592614 q 0.01764,0 0.01764,0.02822 0,0.0635 -0.09525,0.204611 -0.09172,0.141111 -0.197556,0.232833 -0.370416,0.328084 -0.740833,0.328084 -0.141112,0 -0.282223,-0.0635 -0.137583,-0.06703 -0.257528,-0.186972 -0.119944,-0.119945 -0.194028,-0.321028 -0.07408,-0.201084 -0.07408,-0.448028 0,-0.151695 0.03528,-0.257528 0.07055,-0.215195 0.299861,-0.455084 0.232834,-0.239889 0.437445,-0.239889 0.05644,0 0.169333,0.01058 0.169334,0.01411 0.236362,0.03528 0.07055,0.02117 0.15875,0.08819 0.112889,0.08467 0.194028,0.218722 0.08467,0.130528 0.08467,0.218722 0,0.112889 -0.08819,0.172862 -0.08819,0.05644 -0.342195,0.112888 -0.331611,0.07408 -0.649111,0.09172 l -0.328084,0.01764 v 0.141111 q 0,0.261056 0.243417,0.493889 0.183444,0.176389 0.381,0.176389 0.151695,0 0.321028,-0.09172 0.172861,-0.09525 0.292806,-0.208139 0.119944,-0.112889 0.229306,-0.204611 0.109361,-0.09525 0.148166,-0.09525 z m -0.567972,-0.860778 q -0.109361,-0.09878 -0.165806,-0.123472 -0.05292,-0.02822 -0.141111,-0.02822 -0.176389,0 -0.264584,0.03528 -0.08467,0.03175 -0.172861,0.134056 -0.268111,0.306917 -0.268111,0.409223 0,0.04586 0.08467,0.04586 0.321028,0 0.910167,-0.134056 0.176389,-0.04233 0.176389,-0.148167 0,-0.04939 -0.15875,-0.1905 z" />
    </g>
    <g
       style="font-size:3.52778px;line-height:1.25;font-family:'ODINS SPEAR';-inkscape-font-specification:'ODINS SPEAR';letter-spacing:0px;word-spacing:0px;white-space:pre;shape-inside:url(#rect929-0);display:inline"
       id="text927-4"
       transform="translate(99.341056,225.13695)"
       aria-label="prime">
      <path
         id="path975"
         style="font-style:normal;font-variant:normal;font-weight:normal;font-stretch:normal;font-size:3.52778px;font-family:Purisa;-inkscape-font-specification:Purisa;fill:#e9e9e9;fill-opacity:1"
         d="m -46.24229,54.696558 q 0.09878,-0.08819 0.09878,-0.151694 0,-0.0635 0.03881,-0.151695 0.04233,-0.09172 0.119944,-0.09172 0.04939,0 0.08467,0.05644 0.03881,0.05292 0.08114,0.05292 0.03175,0 0.261056,-0.05292 0.229305,-0.05644 0.402167,-0.05644 0.144639,0 0.321028,0.03881 0.366889,0.08467 0.366889,0.455083 0,0.282223 -0.218723,0.751417 -0.144639,0.310445 -0.352778,0.479778 -0.208139,0.165806 -0.4445,0.165806 -0.06703,0 -0.102306,-0.0071 l -0.162278,-0.0247 0.03881,0.1905 q 0.127,0.599723 0.127,0.751417 0,0.07056 -0.02469,0.09172 -0.0247,0.02469 -0.08467,0.02469 -0.0635,0 -0.09172,-0.03175 -0.0247,-0.02822 -0.05292,-0.123472 -0.137583,-0.493889 -0.22225,-1.474612 -0.03881,-0.483306 -0.06703,-0.58914 -0.02469,-0.109361 -0.102306,-0.109361 -0.112889,0 -0.112889,-0.06703 0,-0.0388 0.09878,-0.127 z m 0.525639,1.171223 q 0.05292,0 0.123473,0.04586 0.07055,0.04233 0.119944,0.04233 0.141112,0 0.324556,-0.179917 0.183445,-0.183445 0.310445,-0.440972 0.130528,-0.257528 0.130528,-0.458612 0,-0.109361 -0.04939,-0.197556 -0.04586,-0.08819 -0.08114,-0.09878 -0.05997,-0.0247 -0.208139,-0.0247 -0.328084,0 -0.582084,0.08114 l -0.236361,0.07761 0.0071,0.225778 q 0.0071,0.225778 0.03881,0.575028 0.01764,0.208139 0.03881,0.278695 0.02117,0.07056 0.0635,0.07408 z" />
      <path
         id="path977"
         style="font-style:normal;font-variant:normal;font-weight:normal;font-stretch:normal;font-size:3.52778px;font-family:Purisa;-inkscape-font-specification:Purisa;fill:#e9e9e9;fill-opacity:1"
         d="m -42.784018,54.636586 q 0.05997,0 0.105833,0.03881 0.04586,0.03528 0.04586,0.05997 0,0.04233 -0.134055,0.09525 -0.218723,0.08819 -0.448028,0.426861 -0.225778,0.335139 -0.275167,0.649112 -0.05645,0.356306 -0.09172,0.465667 -0.03528,0.112889 -0.09172,0.112889 -0.04939,0 -0.07761,-0.03528 -0.02469,-0.03528 -0.03528,-0.07761 -0.0071,-0.04233 -0.01764,-0.155222 -0.0035,-0.02117 -0.0035,-0.03175 -0.08467,-0.889001 -0.08467,-1.404057 0,-0.183445 0.01411,-0.225778 0.03881,-0.112889 0.09878,-0.112889 0.05644,0 0.05644,0.09525 0,0.15875 0.04939,0.511528 0.04939,0.352778 0.07408,0.352778 0.03175,0 0.130528,-0.194028 0.123472,-0.229305 0.328083,-0.398639 0.208139,-0.172861 0.356306,-0.172861 z" />
      <path
         id="path979"
         style="font-style:normal;font-variant:normal;font-weight:normal;font-stretch:normal;font-size:3.52778px;font-family:Purisa;-inkscape-font-specification:Purisa;fill:#e9e9e9;fill-opacity:1"
         d="m -41.98889,54.340253 q 0.04939,-0.04233 0.08467,-0.04233 0.07408,0 0.105834,0.236361 0.03528,0.232834 0.0635,0.899584 0.01411,0.310445 0.01411,0.560917 0,0.250473 -0.02117,0.275167 -0.04233,0.05292 -0.105833,0.05292 -0.08819,0 -0.109362,-0.07408 -0.01764,-0.04586 -0.05292,-0.712612 -0.03528,-0.670278 -0.03528,-0.931334 0,-0.218722 0.05644,-0.264583 z m -0.02117,-0.829029 q 0,-0.04939 0.0388,-0.09878 0.04233,-0.04939 0.07408,-0.04939 0.03528,0 0.09525,0.04939 0.0635,0.04586 0.0635,0.119945 0,0.05292 -0.03175,0.09172 -0.02822,0.03528 -0.07761,0.03528 -0.05645,0 -0.109362,-0.04233 -0.05292,-0.04233 -0.05292,-0.105834 z" />
      <path
         id="path981"
         style="font-style:normal;font-variant:normal;font-weight:normal;font-stretch:normal;font-size:3.52778px;font-family:Purisa;-inkscape-font-specification:Purisa;fill:#e9e9e9;fill-opacity:1"
         d="m -40.904648,54.576614 q 0,-0.204611 0.05644,-0.204611 0.04586,0 0.09878,0.321028 0.05644,0.321028 0.07761,0.321028 0.0071,0 0.0247,-0.04233 0.01764,-0.04586 0.03881,-0.09878 0.02117,-0.05644 0.03528,-0.07056 0.03528,-0.04586 0.09525,-0.172861 0.07408,-0.151695 0.112889,-0.183445 0.03881,-0.03528 0.137583,-0.03528 0.109362,0 0.239889,0.151695 0.08467,0.09878 0.112889,0.183444 0.03175,0.08114 0.06703,0.296334 l 0.05645,0.331611 0.05997,-0.211667 q 0.08819,-0.306917 0.254,-0.529167 0.165806,-0.22225 0.306917,-0.22225 0.08819,0 0.162278,0.102306 0.07408,0.09878 0.105833,0.254 0.03175,0.141111 0.03175,0.638528 0,0.370417 -0.0035,0.5715 -0.0035,0.201084 -0.01764,0.292806 -0.01058,0.08819 -0.02117,0.102306 -0.01058,0.01764 -0.03881,0.02117 -0.01058,0.0035 -0.02469,0.0035 -0.03175,0 -0.03881,-0.09878 -0.0071,-0.09878 -0.01058,-0.553861 0,-1.111251 -0.169333,-1.111251 -0.09172,0 -0.239889,0.303389 -0.123473,0.250473 -0.20814,0.610306 -0.08467,0.359834 -0.102305,0.726723 -0.0035,0.08819 -0.02117,0.119945 -0.01411,0.03175 -0.04939,0.03175 -0.04233,0 -0.05644,-0.07408 -0.01058,-0.07055 -0.0247,-0.381 -0.02469,-0.5715 -0.07055,-0.800806 -0.04586,-0.232834 -0.169334,-0.419806 -0.09172,-0.130528 -0.134055,-0.130528 -0.04939,0 -0.109362,0.123472 -0.05997,0.119945 -0.197555,0.46214 -0.0635,0.165805 -0.0635,0.303389 0,0.08114 -0.03175,0.179917 -0.02822,0.09525 -0.03881,0.47625 -0.0071,0.356306 -0.02822,0.405695 -0.01411,0.04233 -0.05644,0.04233 -0.05644,0 -0.07761,-0.169334 -0.01764,-0.169333 -0.01764,-0.677333 0,-0.409223 -0.02822,-0.751417 -0.02469,-0.342195 -0.02469,-0.437445 z" />
      <path
         id="path983"
         style="font-style:normal;font-variant:normal;font-weight:normal;font-stretch:normal;font-size:3.52778px;font-family:Purisa;-inkscape-font-specification:Purisa;fill:#e9e9e9;fill-opacity:1"
         d="m -36.432306,55.592614 q 0.01764,0 0.01764,0.02822 0,0.0635 -0.09525,0.204611 -0.09172,0.141111 -0.197556,0.232833 -0.370416,0.328084 -0.740833,0.328084 -0.141112,0 -0.282223,-0.0635 -0.137583,-0.06703 -0.257528,-0.186972 -0.119944,-0.119945 -0.194028,-0.321028 -0.07408,-0.201084 -0.07408,-0.448028 0,-0.151695 0.03528,-0.257528 0.07055,-0.215195 0.299861,-0.455084 0.232834,-0.239889 0.437445,-0.239889 0.05644,0 0.169333,0.01058 0.169334,0.01411 0.236362,0.03528 0.07055,0.02117 0.15875,0.08819 0.112889,0.08467 0.194028,0.218722 0.08467,0.130528 0.08467,0.218722 0,0.112889 -0.08819,0.172862 -0.08819,0.05644 -0.342195,0.112888 -0.331611,0.07408 -0.649111,0.09172 l -0.328084,0.01764 v 0.141111 q 0,0.261056 0.243417,0.493889 0.183444,0.176389 0.381,0.176389 0.151695,0 0.321028,-0.09172 0.172861,-0.09525 0.292806,-0.208139 0.119944,-0.112889 0.229306,-0.204611 0.109361,-0.09525 0.148166,-0.09525 z m -0.567972,-0.860778 q -0.109361,-0.09878 -0.165806,-0.123472 -0.05292,-0.02822 -0.141111,-0.02822 -0.176389,0 -0.264584,0.03528 -0.08467,0.03175 -0.172861,0.134056 -0.268111,0.306917 -0.268111,0.409223 0,0.04586 0.08467,0.04586 0.321028,0 0.910167,-0.134056 0.176389,-0.04233 0.176389,-0.148167 0,-0.04939 -0.15875,-0.1905 z" />
    </g>
    <rect
       ry="1"
       rx="1"
       y="269"
       x="32"
       height="9"
       width="18"
       id="rect1054-4"
       style="display:inline;fill:#000000;fill-opacity:1;stroke-width:0.29033" />
    <text
       xml:space="preserve"
       id="text1133"
       style="font-size:10.5833px;line-height:1.25;font-family:'ODINS SPEAR';-inkscape-font-specification:'ODINS SPEAR';letter-spacing:0px;word-spacing:0px;white-space:pre;shape-inside:url(#rect1135);" />
    <g
       aria-label="reset"
       transform="translate(123.12574,39.123668)"
       id="text1147"
       style="font-size:3.52778px;line-height:1.25;font-family:'ODINS SPEAR';-inkscape-font-specification:'ODINS SPEAR';letter-spacing:0px;word-spacing:0px;white-space:pre;shape-inside:url(#rect1149)">
      <path
         d="m -53.518015,220.99205 q 0.05997,0 0.105834,0.0388 0.04586,0.0353 0.04586,0.06 0,0.0423 -0.134056,0.0952 -0.218722,0.0882 -0.448028,0.42686 -0.225778,0.33514 -0.275167,0.64912 -0.05644,0.3563 -0.09172,0.46566 -0.03528,0.11289 -0.09172,0.11289 -0.04939,0 -0.07761,-0.0353 -0.0247,-0.0353 -0.03528,-0.0776 -0.0071,-0.0423 -0.01764,-0.15522 -0.0035,-0.0212 -0.0035,-0.0317 -0.08467,-0.889 -0.08467,-1.40406 0,-0.18344 0.01411,-0.22577 0.03881,-0.11289 0.09878,-0.11289 0.05645,0 0.05645,0.0952 0,0.15875 0.04939,0.51153 0.04939,0.35277 0.07408,0.35277 0.03175,0 0.130528,-0.19402 0.123472,-0.22931 0.328084,-0.39864 0.208139,-0.17287 0.356305,-0.17287 z"
         style="font-style:normal;font-variant:normal;font-weight:normal;font-stretch:normal;font-size:3.52778px;font-family:Purisa;-inkscape-font-specification:Purisa;fill:#e6e6e6"
         id="path1194" />
      <path
         d="m -51.121274,221.94808 q 0.01764,0 0.01764,0.0282 0,0.0635 -0.09525,0.20461 -0.09172,0.14111 -0.197556,0.23283 -0.370417,0.32808 -0.740834,0.32808 -0.141111,0 -0.282222,-0.0635 -0.137583,-0.067 -0.257528,-0.18697 -0.119945,-0.11994 -0.194028,-0.32103 -0.07408,-0.20108 -0.07408,-0.44802 0,-0.1517 0.03528,-0.25753 0.07055,-0.2152 0.299861,-0.45509 0.232833,-0.23989 0.437445,-0.23989 0.05644,0 0.169333,0.0106 0.169333,0.0141 0.236361,0.0353 0.07056,0.0212 0.15875,0.0882 0.112889,0.0847 0.194028,0.21872 0.08467,0.13053 0.08467,0.21873 0,0.11288 -0.08819,0.17286 -0.08819,0.0564 -0.342194,0.11289 -0.331611,0.0741 -0.649112,0.0917 l -0.328083,0.0176 v 0.14111 q 0,0.26105 0.243417,0.49389 0.183444,0.17639 0.381,0.17639 0.151694,0 0.321028,-0.0917 0.172861,-0.0952 0.292806,-0.20814 0.119944,-0.11288 0.229305,-0.20461 0.109361,-0.0952 0.148167,-0.0952 z m -0.567973,-0.86078 q -0.109361,-0.0988 -0.165805,-0.12347 -0.05292,-0.0282 -0.141111,-0.0282 -0.176389,0 -0.264584,0.0353 -0.08467,0.0318 -0.172861,0.13405 -0.268111,0.30692 -0.268111,0.40923 0,0.0459 0.08467,0.0459 0.321028,0 0.910168,-0.13406 0.176389,-0.0423 0.176389,-0.14816 0,-0.0494 -0.158751,-0.19051 z"
         style="font-style:normal;font-variant:normal;font-weight:normal;font-stretch:normal;font-size:3.52778px;font-family:Purisa;-inkscape-font-specification:Purisa;fill:#e6e6e6"
         id="path1196" />
      <path
         d="m -50.309223,221.87753 q -0.05292,0 -0.225778,-0.127 -0.172861,-0.13053 -0.172861,-0.26459 0,-0.127 0.179916,-0.34925 0.179917,-0.22577 0.433917,-0.28927 0.116417,-0.0317 0.306917,-0.0317 0.08114,0 0.119945,0.0212 0.0388,0.0212 0.105833,0.0953 0.109361,0.12347 0.109361,0.16934 0,0.0423 -0.04586,0.0423 -0.05644,0 -0.09525,-0.0388 -0.03881,-0.0423 -0.09525,-0.0847 -0.05645,-0.0423 -0.151695,-0.0423 -0.123472,0 -0.264583,0.067 -0.141111,0.067 -0.250472,0.18697 -0.155223,0.16581 -0.155223,0.22578 0,0.06 0.09172,0.14464 0.09172,0.0811 0.306917,0.15522 0.338667,0.11642 0.458612,0.21873 0.119944,0.1023 0.119944,0.27516 0,0.16228 -0.05644,0.29634 -0.03881,0.1023 -0.165806,0.2293 -0.127,0.127 -0.250472,0.127 -0.09525,0 -0.246945,-0.0318 -0.151694,-0.0282 -0.229306,-0.067 -0.0635,-0.0317 -0.116416,-0.12347 -0.05292,-0.0952 -0.05292,-0.16933 0,-0.0388 0.01764,-0.067 0.02117,-0.0318 0.04939,-0.0318 0.05292,0 0.09878,0.0988 0.04233,0.0882 0.169333,0.15875 0.130528,0.0705 0.243417,0.0705 0.151694,0 0.268111,-0.17991 0.116417,-0.18345 0.116417,-0.28575 0,-0.0247 -0.01411,-0.06 -0.01058,-0.0388 -0.05997,-0.0917 -0.04939,-0.0529 -0.127001,-0.0811 -0.07408,-0.0247 -0.172861,-0.067 -0.09878,-0.0423 -0.165805,-0.0706 -0.0635,-0.0282 -0.08114,-0.0282 z"
         style="font-style:normal;font-variant:normal;font-weight:normal;font-stretch:normal;font-size:3.52778px;font-family:Purisa;-inkscape-font-specification:Purisa;fill:#e6e6e6"
         id="path1198" />
      <path
         d="m -47.207643,221.94808 q 0.01764,0 0.01764,0.0282 0,0.0635 -0.09525,0.20461 -0.09172,0.14111 -0.197556,0.23283 -0.370417,0.32808 -0.740834,0.32808 -0.141111,0 -0.282222,-0.0635 -0.137583,-0.067 -0.257528,-0.18697 -0.119944,-0.11994 -0.194028,-0.32103 -0.07408,-0.20108 -0.07408,-0.44802 0,-0.1517 0.03528,-0.25753 0.07055,-0.2152 0.299861,-0.45509 0.232833,-0.23989 0.437445,-0.23989 0.05644,0 0.169333,0.0106 0.169334,0.0141 0.236361,0.0353 0.07056,0.0212 0.15875,0.0882 0.112889,0.0847 0.194028,0.21872 0.08467,0.13053 0.08467,0.21873 0,0.11288 -0.08819,0.17286 -0.08819,0.0564 -0.342195,0.11289 -0.331611,0.0741 -0.649112,0.0917 l -0.328083,0.0176 v 0.14111 q 0,0.26105 0.243417,0.49389 0.183444,0.17639 0.381,0.17639 0.151694,0 0.321028,-0.0917 0.172861,-0.0952 0.292806,-0.20814 0.119944,-0.11288 0.229305,-0.20461 0.109362,-0.0952 0.148167,-0.0952 z m -0.567972,-0.86078 q -0.109362,-0.0988 -0.165806,-0.12347 -0.05292,-0.0282 -0.141111,-0.0282 -0.176389,0 -0.264584,0.0353 -0.08467,0.0318 -0.172861,0.13405 -0.268111,0.30692 -0.268111,0.40923 0,0.0459 0.08467,0.0459 0.321028,0 0.910168,-0.13406 0.176389,-0.0423 0.176389,-0.14816 0,-0.0494 -0.15875,-0.19051 z"
         style="font-style:normal;font-variant:normal;font-weight:normal;font-stretch:normal;font-size:3.52778px;font-family:Purisa;-inkscape-font-specification:Purisa;fill:#e6e6e6"
         id="path1200" />
      <path
         d="m -46.20862,220.25475 q 0,-0.13053 -0.02469,-0.33161 -0.0247,-0.20109 -0.0247,-0.33514 0,-0.067 0.0035,-0.0882 0.01058,-0.0564 0.0388,-0.0882 0.03175,-0.0353 0.0635,-0.0353 0.04233,0 0.05997,0.0388 0.01058,0.0247 0.03175,0.26105 0.02117,0.23636 0.03881,0.46214 0.01764,0.22578 0.0247,0.23284 0.0035,0.004 0.01058,0.004 0.02822,0 0.162278,-0.0282 0.137583,-0.0318 0.225778,-0.0318 0.176389,0 0.176389,0.0776 0,0.0776 -0.388056,0.17286 l -0.176389,0.0423 0.02117,0.59619 q 0.01764,0.52564 0.06703,0.98425 0.04939,0.45509 0.04939,0.51506 0,0.10936 -0.08114,0.10936 -0.0635,0 -0.105834,-0.11289 -0.03881,-0.11289 -0.03881,-0.29281 0,-0.13052 -0.01058,-0.26458 -0.01058,-0.13758 -0.03881,-0.42333 -0.0247,-0.28928 -0.04939,-0.59267 -0.01058,-0.16228 -0.01764,-0.25047 -0.0035,-0.0882 -0.01058,-0.13053 -0.0071,-0.0423 -0.01058,-0.0494 -0.0035,-0.0106 -0.01411,-0.0106 -0.05644,0 -0.271639,0.0388 -0.215195,0.0388 -0.268111,0.0388 -0.102306,0 -0.102306,-0.0847 0,-0.06 0.127,-0.1023 0.130528,-0.0423 0.292806,-0.0741 0.162278,-0.0353 0.201083,-0.06 0.03881,-0.0282 0.03881,-0.18697 z"
         style="font-style:normal;font-variant:normal;font-weight:normal;font-stretch:normal;font-size:3.52778px;font-family:Purisa;-inkscape-font-specification:Purisa;fill:#e6e6e6"
         id="path1202" />
    </g>
    <g
       aria-label="shift"
       transform="translate(123.89683,54.382149)"
       id="text1205"
       style="font-size:3.52778px;line-height:1.25;font-family:'ODINS SPEAR';-inkscape-font-specification:'ODINS SPEAR';letter-spacing:0px;word-spacing:0px;white-space:pre;shape-inside:url(#rect1207)">
      <path
         d="m -54.498191,226.81307 q -0.05292,0 -0.225777,-0.127 -0.172862,-0.13052 -0.172862,-0.26458 0,-0.127 0.179917,-0.34925 0.179917,-0.22578 0.433917,-0.28928 0.116417,-0.0318 0.306917,-0.0318 0.08114,0 0.119944,0.0212 0.03881,0.0212 0.105834,0.0952 0.109361,0.12347 0.109361,0.16933 0,0.0423 -0.04586,0.0423 -0.05644,0 -0.09525,-0.0388 -0.03881,-0.0423 -0.09525,-0.0847 -0.05644,-0.0423 -0.151695,-0.0423 -0.123472,0 -0.264583,0.067 -0.141112,0.067 -0.250473,0.18697 -0.155222,0.16581 -0.155222,0.22578 0,0.06 0.09172,0.14464 0.09172,0.0811 0.306917,0.15522 0.338667,0.11642 0.458612,0.21872 0.119944,0.10231 0.119944,0.27517 0,0.16228 -0.05644,0.29633 -0.03881,0.10231 -0.165806,0.22931 -0.127,0.127 -0.250472,0.127 -0.09525,0 -0.246945,-0.0318 -0.151695,-0.0282 -0.229306,-0.067 -0.0635,-0.0318 -0.116417,-0.12347 -0.05292,-0.0952 -0.05292,-0.16934 0,-0.0388 0.01764,-0.067 0.02117,-0.0317 0.04939,-0.0317 0.05292,0 0.09878,0.0988 0.04233,0.0882 0.169334,0.15876 0.130528,0.0705 0.243417,0.0705 0.151694,0 0.268111,-0.17992 0.116417,-0.18344 0.116417,-0.28575 0,-0.0247 -0.01411,-0.06 -0.01058,-0.0388 -0.05997,-0.0917 -0.04939,-0.0529 -0.127,-0.0811 -0.07408,-0.0247 -0.172861,-0.067 -0.09878,-0.0423 -0.165806,-0.0705 -0.0635,-0.0282 -0.08114,-0.0282 z"
         style="font-style:normal;font-variant:normal;font-weight:normal;font-stretch:normal;font-size:3.52778px;font-family:Purisa;-inkscape-font-specification:Purisa;fill:#e6e6e6"
         id="path1211" />
      <path
         d="m -53.06525,227.33871 q 0,-0.28222 -0.07056,-1.13594 -0.06703,-0.85725 -0.06703,-1.18181 0,-0.18697 0.02117,-0.22578 0.04233,-0.0741 0.08114,-0.0741 0.0635,0 0.08114,0.12347 0.02117,0.12348 0.05644,0.62442 0.01058,0.12347 0.01411,0.20108 0.0071,0.0741 0.01411,0.21167 0.01058,0.13406 0.02117,0.26106 l 0.03175,0.41627 0.0635,-0.13758 q 0.07056,-0.15875 0.345723,-0.41628 0.275166,-0.25753 0.370417,-0.25753 0.08819,0 0.194027,0.0988 0.105834,0.0988 0.137584,0.21167 0.02822,0.0952 0.02822,0.85725 0,0.55033 -0.01058,0.65264 -0.01058,0.0988 -0.06703,0.0988 -0.05645,0 -0.07408,-0.10231 -0.01411,-0.1023 -0.02822,-0.58914 -0.02117,-0.68086 -0.08467,-0.87136 l -0.05645,-0.17639 -0.204611,0.1905 q -0.162278,0.15522 -0.299861,0.35278 -0.134056,0.19756 -0.183445,0.34925 -0.03175,0.10936 -0.05292,0.34925 -0.02117,0.23989 -0.05292,0.39511 -0.02822,0.15522 -0.08467,0.15522 -0.0247,0 -0.05997,-0.0282 -0.0635,-0.0529 -0.0635,-0.35278 z"
         style="font-style:normal;font-variant:normal;font-weight:normal;font-stretch:normal;font-size:3.52778px;font-family:Purisa;-inkscape-font-specification:Purisa;fill:#e6e6e6"
         id="path1213" />
      <path
         d="m -51.103419,225.63127 q 0.04939,-0.0423 0.08467,-0.0423 0.07408,0 0.105833,0.23637 0.03528,0.23283 0.0635,0.89958 0.01411,0.31044 0.01411,0.56092 0,0.25047 -0.02117,0.27516 -0.04233,0.0529 -0.105834,0.0529 -0.08819,0 -0.109361,-0.0741 -0.01764,-0.0459 -0.05292,-0.71261 -0.03528,-0.67028 -0.03528,-0.93134 0,-0.21872 0.05644,-0.26458 z m -0.02117,-0.82903 q 0,-0.0494 0.03881,-0.0988 0.04233,-0.0494 0.07408,-0.0494 0.03528,0 0.09525,0.0494 0.0635,0.0459 0.0635,0.11995 0,0.0529 -0.03175,0.0917 -0.02822,0.0353 -0.07761,0.0353 -0.05644,0 -0.109361,-0.0423 -0.05292,-0.0423 -0.05292,-0.10583 z"
         style="font-style:normal;font-variant:normal;font-weight:normal;font-stretch:normal;font-size:3.52778px;font-family:Purisa;-inkscape-font-specification:Purisa;fill:#e6e6e6"
         id="path1215" />
      <path
         d="m -49.740483,226.0546 q -0.04233,0 -0.179917,0.0388 -0.134055,0.0353 -0.215194,0.0353 -0.155223,0 -0.155223,-0.0988 0,-0.0388 0.05644,-0.0706 0.05997,-0.0317 0.229306,-0.0811 l 0.28575,-0.0847 0.0071,-0.30692 q 0.0071,-0.32808 0.04939,-0.7232 0.03175,-0.2928 0.05645,-0.37041 0.02469,-0.0776 0.109361,-0.16228 0.07056,-0.0706 0.112889,-0.0917 0.04586,-0.0212 0.127,-0.0212 0.05997,0 0.254,0.0176 0.148167,0.0141 0.211667,0.0423 0.0635,0.0247 0.144639,0.10584 0.119944,0.11994 0.119944,0.21872 0,0.0706 -0.05644,0.14817 -0.05292,0.0741 -0.08114,0.0741 -0.04233,0 -0.04233,-0.11995 0,-0.11288 -0.0635,-0.17286 -0.05997,-0.0635 -0.236362,-0.11994 -0.116416,-0.0353 -0.179916,-0.0353 -0.151695,0 -0.236362,0.17639 -0.03175,0.0706 -0.05997,0.40569 -0.02469,0.33162 -0.02469,0.61031 0,0.20108 0.01411,0.254 0.01764,0.0494 0.08819,0.0494 0.04233,0 0.176389,-0.0247 0.134056,-0.0247 0.22225,-0.0247 0.04939,0 0.08114,0.0176 0.03175,0.0141 0.03175,0.0353 0,0.06 -0.303389,0.15169 l -0.303389,0.0882 -0.01058,0.56091 q 0,0.0423 -0.0035,0.11642 0,0.0706 0,0.0988 0,0.26458 0.0247,0.40922 0.02469,0.14464 0.04939,0.20814 0.02469,0.0635 0.02469,0.13758 0,0.10584 -0.09878,0.10584 -0.186972,0 -0.186972,-0.98425 0,-0.58914 -0.02117,-0.61031 -0.0035,-0.004 -0.01764,-0.004 z"
         style="font-style:normal;font-variant:normal;font-weight:normal;font-stretch:normal;font-size:3.52778px;font-family:Purisa;-inkscape-font-specification:Purisa;fill:#e6e6e6"
         id="path1217" />
      <path
         d="m -47.503705,225.1903 q 0,-0.13053 -0.02469,-0.33162 -0.0247,-0.20108 -0.0247,-0.33513 0,-0.067 0.0035,-0.0882 0.01058,-0.0564 0.0388,-0.0882 0.03175,-0.0353 0.0635,-0.0353 0.04233,0 0.05997,0.0388 0.01058,0.0247 0.03175,0.26106 0.02117,0.23636 0.03881,0.46214 0.01764,0.22578 0.0247,0.23283 0.0035,0.004 0.01058,0.004 0.02822,0 0.162278,-0.0282 0.137583,-0.0317 0.225778,-0.0317 0.176389,0 0.176389,0.0776 0,0.0776 -0.388056,0.17286 l -0.176389,0.0423 0.02117,0.5962 q 0.01764,0.52564 0.06703,0.98425 0.04939,0.45508 0.04939,0.51506 0,0.10936 -0.08114,0.10936 -0.0635,0 -0.105834,-0.11289 -0.03881,-0.11289 -0.03881,-0.29281 0,-0.13053 -0.01058,-0.26458 -0.01058,-0.13759 -0.03881,-0.42334 -0.0247,-0.28927 -0.04939,-0.59266 -0.01058,-0.16228 -0.01764,-0.25048 -0.0035,-0.0882 -0.01058,-0.13052 -0.0071,-0.0423 -0.01058,-0.0494 -0.0035,-0.0106 -0.01411,-0.0106 -0.05644,0 -0.271639,0.0388 -0.215195,0.0388 -0.268111,0.0388 -0.102306,0 -0.102306,-0.0847 0,-0.06 0.127,-0.10231 0.130528,-0.0423 0.292806,-0.0741 0.162278,-0.0353 0.201083,-0.06 0.03881,-0.0282 0.03881,-0.18697 z"
         style="font-style:normal;font-variant:normal;font-weight:normal;font-stretch:normal;font-size:3.52778px;font-family:Purisa;-inkscape-font-specification:Purisa;fill:#e6e6e6"
         id="path1219" />
    </g>
    <g
       aria-label="modulo"
       transform="matrix(0.63,0,0,0.63,72.861215,44.479632)"
       id="text1222"
       style="font-size:8.46667px;line-height:1.25;font-family:'ODINS SPEAR';-inkscape-font-specification:'ODINS SPEAR';letter-spacing:0px;word-spacing:0px;white-space:pre;shape-inside:url(#rect1224);fill:#e6e6e6;filter:url(#filter1521)">
      <path
         d="m -53.846421,203.73789 q 0,0.69427 -0.01693,1.07527 -0.0085,0.37253 -0.05927,0.57573 -0.04233,0.2032 -0.1016,0.254 -0.05927,0.0508 -0.1778,0.0508 -0.143934,0 -0.194734,-0.1524 -0.03387,-0.11853 -0.04233,-1.1684 0,-1.05833 -0.0762,-1.9812 -0.06773,-0.93134 -0.270934,-0.93134 -0.143933,0 -0.4318,0.46567 -0.287867,0.46567 -0.5842,1.40547 -0.287867,0.93133 -0.347133,1.96427 -0.03387,0.46566 -0.296334,0.46566 -0.186267,0 -0.237067,-0.1778 -0.04233,-0.1778 -0.06773,-0.7366 0,-0.0508 0,-0.0762 0,-0.0254 -0.0085,-0.0677 0,-0.0508 0,-0.0847 -0.05927,-1.2954 -0.1778,-1.8034 -0.118533,-0.508 -0.440267,-0.9144 -0.1778,-0.254 -0.254,-0.254 -0.135466,0.0339 -0.7112,1.27 -0.160867,0.33867 -0.160867,0.65194 0,0.2032 -0.08467,0.42333 -0.0762,0.22013 -0.1016,1.08373 0,0.0847 -0.0085,0.24554 0,0.16086 0,0.24553 0,0.0762 -0.01693,0.2032 -0.0085,0.127 -0.03387,0.18627 -0.01693,0.0593 -0.0508,0.127 -0.03387,0.0677 -0.09313,0.0931 -0.0508,0.0339 -0.127,0.0339 -0.2286,0 -0.287866,-0.39794 -0.05927,-0.38946 -0.05927,-1.65946 0,-0.8128 -0.06773,-1.71027 -0.05927,-0.90594 -0.05927,-1.0414 0,-0.56727 0.245533,-0.56727 0.08467,0 0.143934,0.0931 0.06773,0.0931 0.110066,0.26247 0.04233,0.16087 0.06773,0.32173 0.03387,0.16087 0.06773,0.37254 0.03387,0.21166 0.05927,0.31326 0.0508,-0.127 0.0762,-0.18626 0.03387,-0.0593 0.05927,-0.0762 0.0254,-0.0254 0.09313,-0.127 0.06773,-0.11007 0.169333,-0.29634 0.211667,-0.38946 0.338667,-0.4826 0.127,-0.1016 0.440267,-0.1016 0.338667,0 0.728134,0.4064 0.220133,0.24554 0.3048,0.46567 0.08467,0.21167 0.169333,0.7366 l 0.05927,0.31327 q 0.237067,-0.75354 0.702733,-1.33774 0.474134,-0.5842 0.939801,-0.5842 0.287867,0 0.491067,0.26247 0.211666,0.26247 0.296333,0.635 0.08467,0.39793 0.08467,1.91347 z"
         style="font-style:normal;font-variant:normal;font-weight:bold;font-stretch:normal;font-size:8.46667px;font-family:Purisa;-inkscape-font-specification:'Purisa Bold';fill:#e6e6e6"
         id="path1232" />
      <path
         d="m -51.561479,201.76515 q 0.711201,-0.6096 1.210734,-0.80433 0.508,-0.19473 1.270001,-0.19473 1.176867,0 1.4732,0.6604 0.169334,0.37253 0.169334,0.92286 0,0.87207 -0.423334,1.77801 -0.414867,0.90593 -1.058333,1.27 -0.626534,0.34713 -1.329268,0.34713 -1.032933,0 -1.5748,-0.6096 -0.381,-0.42333 -0.499534,-0.71967 -0.110067,-0.3048 -0.110067,-0.8382 0,-1.05833 0.872067,-1.81187 z m 1.532468,3.27661 q 0.694267,0 1.278467,-0.88054 0.592667,-0.889 0.592667,-2.01507 0,-0.11853 -0.0254,-0.18626 -0.01693,-0.0677 -0.04233,-0.0931 -0.0254,-0.0339 -0.09313,-0.0847 -0.3048,-0.22014 -0.643467,-0.22014 -0.0508,0 -0.143933,0.0169 -0.08467,0.008 -0.262467,0.0339 -0.169333,0.0169 -0.372533,0.0339 -0.279401,0.0254 -0.457201,0.11007 -0.169333,0.0762 -0.440267,0.3048 -0.508,0.4318 -0.728133,0.79587 -0.211667,0.3556 -0.211667,0.77893 0,0.61807 0.4318,1.016 0.4318,0.38947 1.117601,0.38947 z"
         style="font-style:normal;font-variant:normal;font-weight:bold;font-stretch:normal;font-size:8.46667px;font-family:Purisa;-inkscape-font-specification:'Purisa Bold';fill:#e6e6e6"
         id="path1234" />
      <path
         d="m -43.305417,202.09535 q -0.491067,-0.28786 -0.668867,-0.28786 -0.118533,0 -0.728133,0.49953 -0.609601,0.49954 -0.736601,0.762 -0.0762,0.1524 -0.0762,0.65194 0,0.56726 0.1016,0.7366 0.0762,0.11853 0.397934,0.27093 0.3302,0.1524 0.626533,0.1524 0.567267,0 1.473201,-0.762 0.635,-0.5334 0.702734,-0.7366 0,-0.21167 -0.355601,-0.635 -0.347133,-0.42334 -0.7366,-0.65194 z m 1.227667,2.25214 q -0.0085,0.008 -0.1778,0.18627 -0.160867,0.16933 -0.364067,0.33866 -0.194733,0.16934 -0.474133,0.36407 -0.270934,0.19473 -0.635,0.31327 -0.364067,0.11853 -0.736601,0.11853 -0.321733,0 -0.702733,-0.127 -1.193801,-0.4064 -1.193801,-1.6764 0,-0.51647 0.1778,-0.98213 0.186267,-0.47414 0.465667,-0.80434 0.287867,-0.33867 0.618067,-0.5842 0.338667,-0.24553 0.651934,-0.36407 0.313266,-0.127 0.541867,-0.127 0.262466,0 0.8382,0.3048 0.575733,0.3048 0.8128,0.5842 0.135467,0.16934 0.2032,0.22014 0.03387,-0.29634 0.05927,-2.30294 0.0254,-2.01506 0.110067,-2.21826 0.135466,-0.3302 0.4318,-0.3302 h 0.338667 l -0.06773,3.58986 q -0.0254,1.23614 -0.0254,2.20981 0,1.31233 0.05927,1.8796 0.05927,0.5588 0.05927,0.61806 0,0.1778 -0.09313,0.36407 -0.09313,0.18627 -0.313267,0.18627 -0.270933,0 -0.381,-0.31327 -0.110066,-0.3048 -0.143933,-0.8128 -0.0254,-0.508 -0.05927,-0.635 z"
         style="font-style:normal;font-variant:normal;font-weight:bold;font-stretch:normal;font-size:8.46667px;font-family:Purisa;-inkscape-font-specification:'Purisa Bold';fill:#e6e6e6"
         id="path1236" />
      <path
         d="m -39.465121,201.02009 q 0.152401,0 0.270934,0.127 0.127,0.127 0.127,0.38946 0,0.0931 -0.01693,0.2794 -0.01693,0.18627 -0.01693,0.41487 0,0.22013 0.0254,0.79587 0.0254,0.56727 0.110067,1.32927 0.09313,0.762 0.2286,0.8636 0.03387,0.0254 0.08467,0.0254 0.169333,0 0.5588,-0.3048 0.508,-0.38947 0.982134,-1.2446 0.4826,-0.85514 0.668867,-1.71027 0.143933,-0.65194 0.254,-0.85514 0.118533,-0.2032 0.313267,-0.2032 0.1524,0 0.237066,0.0931 0.09313,0.0931 0.09313,0.24553 0,0.11853 -0.127,0.94827 -0.118534,0.82973 -0.118534,1.1938 0,0.49953 0.211667,1.25307 0.220133,0.75353 0.220133,0.8636 -0.0254,0.18626 -0.160866,0.26246 -0.08467,0.0508 -0.186267,0.0508 -0.220133,0 -0.372533,-0.3302 -0.143934,-0.33866 -0.254001,-0.7874 -0.110066,-0.44873 -0.186266,-0.56726 -0.0254,0.0254 -0.06773,0.0847 -0.03387,0.0508 -0.09313,0.13547 -0.0508,0.0762 -0.09313,0.13547 -0.389467,0.57573 -0.905934,0.99906 -0.508,0.41487 -0.905934,0.41487 -0.6096,0 -0.821267,-0.381 -0.211667,-0.381 -0.347133,-1.63407 -0.05927,-0.5334 -0.05927,-1.40546 0,-0.79587 0.0762,-1.13454 0.0762,-0.34713 0.270933,-0.34713 z"
         style="font-style:normal;font-variant:normal;font-weight:bold;font-stretch:normal;font-size:8.46667px;font-family:Purisa;-inkscape-font-specification:'Purisa Bold';fill:#e6e6e6"
         id="path1238" />
      <path
         d="m -34.061666,198.75102 q 0,-0.61807 0.0508,-0.94827 0.0508,-0.3302 0.118534,-0.41486 0.0762,-0.0931 0.2032,-0.0931 0.2032,0 0.245533,0.16934 0.04233,0.1778 0.1778,2.159 0.143934,1.9812 0.262467,3.85233 0.127,1.87114 0.127,1.91347 0,0.29633 -0.321733,0.29633 -0.287867,0 -0.372534,-0.34713 -0.0762,-0.3556 -0.194733,-2.06587 -0.135467,-1.8034 -0.245534,-3.14113 -0.0508,-0.7112 -0.0508,-1.38007 z"
         style="font-style:normal;font-variant:normal;font-weight:bold;font-stretch:normal;font-size:8.46667px;font-family:Purisa;-inkscape-font-specification:'Purisa Bold';fill:#e6e6e6"
         id="path1240" />
      <path
         d="m -30.791678,201.76515 q 0.7112,-0.6096 1.210734,-0.80433 0.508,-0.19473 1.27,-0.19473 1.176868,0 1.473201,0.6604 0.169333,0.37253 0.169333,0.92286 0,0.87207 -0.423333,1.77801 -0.414867,0.90593 -1.058334,1.27 -0.626533,0.34713 -1.329267,0.34713 -1.032934,0 -1.574801,-0.6096 -0.381,-0.42333 -0.499533,-0.71967 -0.110067,-0.3048 -0.110067,-0.8382 0,-1.05833 0.872067,-1.81187 z m 1.532467,3.27661 q 0.694267,0 1.278468,-0.88054 0.592666,-0.889 0.592666,-2.01507 0,-0.11853 -0.0254,-0.18626 -0.01693,-0.0677 -0.04233,-0.0931 -0.0254,-0.0339 -0.09313,-0.0847 -0.3048,-0.22014 -0.643467,-0.22014 -0.0508,0 -0.143934,0.0169 -0.08467,0.008 -0.262466,0.0339 -0.169334,0.0169 -0.372534,0.0339 -0.2794,0.0254 -0.4572,0.11007 -0.169333,0.0762 -0.440267,0.3048 -0.508,0.4318 -0.728133,0.79587 -0.211667,0.3556 -0.211667,0.77893 0,0.61807 0.4318,1.016 0.4318,0.38947 1.1176,0.38947 z"
         style="font-style:normal;font-variant:normal;font-weight:bold;font-stretch:normal;font-size:8.46667px;font-family:Purisa;-inkscape-font-specification:'Purisa Bold';fill:#e6e6e6"
         id="path1242" />
    </g>
    <g
       aria-label="z "
       transform="translate(91.704716,66.145869)"
       id="text1525"
       style="font-size:10.5833px;line-height:1.25;font-family:'ODINS SPEAR';-inkscape-font-specification:'ODINS SPEAR';letter-spacing:0px;word-spacing:0px;white-space:pre;shape-inside:url(#rect1527);fill:#e6e6e6">
      <path
         d="m -49.032894,226.03177 q -0.0635,0.0423 -0.1905,0.10584 -0.126999,0.0635 -0.211666,0.11641 -0.07408,0.0423 -0.08467,0.0741 -0.169333,0.3175 -0.814914,0.62441 -0.634998,0.30692 -1.047747,0.30692 -0.243416,0 -0.624414,-0.0953 -0.380999,-0.0952 -0.518582,-0.21167 -0.232833,-0.21166 -0.232833,-0.96308 0,-0.4445 0.201083,-0.762 0.211666,-0.32808 0.740831,-0.66674 0.582081,-0.39159 1.132413,-0.39159 0.211666,0 0.359832,0.0953 0.148166,0.0847 0.22225,0.16934 0.07408,0.0847 0.126999,0.0847 0.04233,0 0.169333,0.11642 0.137583,0.10583 0.148166,0.10583 0.03175,0 0.03175,-0.23283 0,-0.97366 -0.08467,-1.54516 -0.08467,-0.5715 -0.232833,-0.77258 -0.137583,-0.20109 -0.349249,-0.20109 -0.423332,0 -0.89958,0.21167 -0.476249,0.20108 -0.846664,0.40217 -0.370416,0.20108 -0.529165,0.20108 -0.105833,0 -0.105833,-0.10583 0,-0.14817 0.05292,-0.254 0.05292,-0.10584 0.201083,-0.20109 0.148166,-0.0953 0.275166,-0.15875 0.137583,-0.0635 0.433915,-0.17991 0.296332,-0.127 0.507998,-0.23283 0.486832,-0.22225 0.836081,-0.22225 0.370416,0 0.624415,0.127 0.253999,0.11641 0.412748,0.47624 0.201083,0.4445 0.211666,0.48684 0.380999,-0.60325 0.719665,-0.93133 0.338665,-0.33867 0.751414,-0.33867 0.116416,0 0.359832,0.0317 0.359832,0.0423 0.497415,0.10583 0.148166,0.0635 0.328083,0.26459 0.232832,0.25399 0.412748,0.64558 0.179916,0.39158 0.179916,0.66674 0,0.33867 -0.190499,0.51859 -0.190499,0.16933 -0.719664,0.33866 -0.687915,0.22225 -1.365246,0.27517 l -0.687915,0.0529 v 0.42334 q 0,0.77258 0.518582,1.48166 0.370416,0.52916 0.793748,0.52916 0.402165,0 0.857247,-0.4445 0.465665,-0.45508 0.793747,-0.89958 0.338666,-0.45508 0.433916,-0.45508 0.03175,0 0.03175,0.0847 0,0.1905 -0.201083,0.62441 -0.1905,0.42334 -0.412749,0.68792 -0.772581,0.98424 -1.555745,0.98424 -0.433915,-0.0317 -0.709081,-0.25399 -0.275166,-0.23284 -0.751414,-0.89959 z m 2.402409,-3.80998 q -0.22225,-0.29634 -0.338666,-0.37042 -0.116416,-0.0847 -0.306915,-0.0847 -0.370416,0 -0.550332,0.10583 -0.179916,0.0953 -0.359832,0.40216 -0.571498,0.93133 -0.571498,1.22767 0,0.13758 0.179916,0.13758 0.677331,0 1.915577,-0.40217 0.370415,-0.127 0.370415,-0.44449 0,-0.14817 -0.338665,-0.5715 z m -3.249073,3.04799 q 0,-0.0847 -0.07408,-0.1905 -0.0635,-0.11642 -0.306916,-0.23283 -0.243416,-0.127 -0.613831,-0.127 -0.391582,0 -0.698498,0.15875 -0.296333,0.15874 -0.444499,0.40216 -0.148166,0.24342 -0.222249,0.45508 -0.0635,0.20109 -0.0635,0.35983 0,0.26459 0.04233,0.35984 0.04233,0.0953 0.211666,0.20108 0.201083,0.11642 0.370416,0.11642 0.317499,0 0.772581,-0.254 0.465665,-0.26459 0.465665,-0.381 0,-0.0847 0.275166,-0.40217 0.285749,-0.32808 0.285749,-0.46566 z"
         style="font-style:normal;font-variant:normal;font-weight:normal;font-stretch:normal;font-family:Purisa;-inkscape-font-specification:Purisa;fill:#e6e6e6"
         id="path1535" />
      <path
         d="m -43.719251,223.1002 q -0.127,0 -0.253999,-0.0529 -0.127,-0.0529 -0.127,-0.13758 0,-0.29633 1.09008,-0.70908 1.100663,-0.41275 1.608662,-0.52916 0.148166,-0.0317 0.306915,-0.0317 0.285749,0 0.560915,0.0847 0.275166,0.0741 0.380999,0.1905 0.137583,0.14817 0.137583,0.51858 0,0.56092 -0.306916,1.22767 l -0.232832,0.48683 0.391582,0.0529 q 0.476248,0.0317 0.476248,0.14817 0,0.0847 -0.232832,0.1905 -0.232833,0.10583 -0.539749,0.14817 -0.285749,0.0423 -0.455082,0.13758 -0.158749,0.0953 -0.412748,0.35983 -0.264583,0.27517 -0.582082,0.80433 -0.317499,0.51858 -0.317499,0.65617 0,0.0423 0.05292,0.0423 0.03175,0 0.941913,-0.16933 0.920747,-0.17992 1.460496,-0.17992 0.560915,0 0.560915,0.1905 0,0.11642 -0.211666,0.20108 -0.211666,0.0741 -0.857248,0.20109 -1.98966,0.39158 -2.423575,0.39158 -0.349249,0 -0.349249,-0.1905 0,-0.20108 0.359832,-0.889 0.359832,-0.68791 0.571498,-0.94191 0.275166,-0.33867 0.275166,-0.40217 0,-0.0741 -0.433915,-0.0741 -0.529165,0 -0.529165,-0.16933 0,-0.127 0.243416,-0.21167 0.253999,-0.0847 0.634998,-0.0847 0.380998,0 0.497415,-0.0423 0.126999,-0.0423 0.253999,-0.22225 0.253999,-0.381 0.423332,-0.84666 0.179916,-0.47625 0.179916,-0.80433 0,-0.17992 -0.05292,-0.22225 -0.05292,-0.0423 -0.264583,-0.0423 -0.507998,0.0106 -1.418162,0.28575 -0.910164,0.27517 -1.111247,0.48683 -0.116416,0.14817 -0.296332,0.14817 z"
         style="font-style:normal;font-variant:normal;font-weight:normal;font-stretch:normal;font-family:Purisa;-inkscape-font-specification:Purisa;fill:#e6e6e6"
         id="path1537" />
    </g>
  </g>
  <g
     inkscape:groupmode="layer"
     id="layer2"
     inkscape:label="components"
     style="display:none">
    <circle
       id="stepMod"
       cx="12.5"
       cy="110.5"
       style="display:inline;opacity:1;fill:#00ff00;fill-opacity:1;stroke-width:0.132292"
       r="2.5"
       inkscape:label="stepMod" />
    <circle
       id="out"
       cx="64.017494"
       cy="122.5"
       style="display:inline;opacity:1;fill:#0000ff;fill-opacity:1;stroke-width:0.132292"
       r="2.5"
       inkscape:label="out" />
    <circle
       id="lengthMod"
       cx="12.5"
       cy="90.5"
       style="display:inline;opacity:1;fill:#00ff00;fill-opacity:1;stroke-width:0.132292"
       r="2.5"
       inkscape:label="lengthMod" />
    <circle
       id="stepAtv"
       cx="12.5"
       cy="102.5"
       style="display:inline;opacity:1;fill:#ff0000;fill-opacity:1;stroke-width:0.132292"
       r="2.5"
       inkscape:label="stepAtv" />
    <circle
       id="lengthAtv"
       cx="12.5"
       cy="82.5"
       style="display:inline;opacity:1;fill:#ff0000;fill-opacity:1;stroke-width:0.132292"
       r="2.5"
       inkscape:label="lengthAtv" />
    <circle
       id="c"
       cx="7.5"
       cy="22.999981"
       style="display:inline;opacity:1;fill:#ff0000;fill-opacity:1;stroke-width:0.132292"
       inkscape:label="c0"
       r="2.5" />
    <circle
       id="d"
       cx="17.499987"
       cy="22.999981"
       style="display:inline;opacity:1;fill:#ff0000;fill-opacity:1;stroke-width:0.132292"
       inkscape:label="d0"
       r="2.5" />
    <circle
       id="e"
       cx="27.499989"
       cy="22.999981"
       style="display:inline;opacity:1;fill:#ff0000;fill-opacity:1;stroke-width:0.132292"
       inkscape:label="e0"
       r="2.5" />
    <circle
       id="f"
       cx="37.499989"
       cy="22.999981"
       style="display:inline;opacity:1;fill:#ff0000;fill-opacity:1;stroke-width:0.132292"
       inkscape:label="f0"
       r="2.5" />
    <circle
       id="g"
       cx="47.499989"
       cy="22.999981"
       style="display:inline;opacity:1;fill:#ff0000;fill-opacity:1;stroke-width:0.132292"
       inkscape:label="g0"
       r="2.5" />
    <circle
       id="a"
       cx="57.499989"
       cy="22.999981"
       style="display:inline;opacity:1;fill:#ff0000;fill-opacity:1;stroke-width:0.132292"
       inkscape:label="a0"
       r="2.5" />
    <circle
       id="b"
       cx="67.499992"
       cy="22.999981"
       style="display:inline;opacity:1;fill:#ff0000;fill-opacity:1;stroke-width:0.132292"
       inkscape:label="b0"
       r="2.5" />
    <circle
       id="Db"
       cx="12.499992"
       cy="12.5"
       style="display:inline;opacity:1;fill:#ff0000;fill-opacity:1;stroke-width:0.132292"
       inkscape:label="Db0"
       r="2.5" />
    <circle
       id="Eb"
       cx="22.499989"
       cy="12.5"
       style="display:inline;opacity:1;fill:#ff0000;fill-opacity:1;stroke-width:0.132292"
       inkscape:label="Eb0"
       r="2.5" />
    <circle
       id="Gb"
       cx="42.499989"
       cy="12.5"
       style="display:inline;opacity:1;fill:#ff0000;fill-opacity:1;stroke-width:0.132292"
       inkscape:label="Gb0"
       r="2.5" />
    <circle
       id="Ab"
       cx="52.499996"
       cy="12.5"
       style="display:inline;opacity:1;fill:#ff0000;fill-opacity:1;stroke-width:0.132292"
       inkscape:label="Ab0"
       r="2.5" />
    <circle
       id="Bb"
       cx="62.5"
       cy="12.5"
       style="display:inline;opacity:1;fill:#ff0000;fill-opacity:1;stroke-width:0.132292"
       inkscape:label="Bb0"
       r="2.5" />
    <circle
       inkscape:label="clock"
       r="2.5"
       style="display:inline;opacity:1;fill:#00ff00;fill-opacity:1;stroke-width:0.132292"
       cy="122.5"
       cx="19.087502"
       id="clock" />
    <circle
       r="2.5"
       inkscape:label="c1"
       style="display:inline;opacity:1;fill:#ff0000;fill-opacity:1;stroke-width:0.132292"
       cy="46.999981"
       cx="7.5"
       id="c-0" />
    <circle
       r="2.5"
       inkscape:label="d1"
       style="display:inline;opacity:1;fill:#ff0000;fill-opacity:1;stroke-width:0.132292"
       cy="46.999981"
       cx="17.499987"
       id="d-6" />
    <circle
       r="2.5"
       inkscape:label="e1"
       style="display:inline;opacity:1;fill:#ff0000;fill-opacity:1;stroke-width:0.132292"
       cy="46.999981"
       cx="27.499989"
       id="e-2" />
    <circle
       r="2.5"
       inkscape:label="f1"
       style="display:inline;opacity:1;fill:#ff0000;fill-opacity:1;stroke-width:0.132292"
       cy="46.999981"
       cx="37.499989"
       id="f-6" />
    <circle
       r="2.5"
       inkscape:label="g1"
       style="display:inline;opacity:1;fill:#ff0000;fill-opacity:1;stroke-width:0.132292"
       cy="46.999981"
       cx="47.499989"
       id="g-1" />
    <circle
       r="2.5"
       inkscape:label="a1"
       style="display:inline;opacity:1;fill:#ff0000;fill-opacity:1;stroke-width:0.132292"
       cy="46.999981"
       cx="57.499989"
       id="a-8" />
    <circle
       r="2.5"
       inkscape:label="b1"
       style="display:inline;opacity:1;fill:#ff0000;fill-opacity:1;stroke-width:0.132292"
       cy="46.999981"
       cx="67.499992"
       id="b-7" />
    <circle
       r="2.5"
       inkscape:label="Db1"
       style="display:inline;opacity:1;fill:#ff0000;fill-opacity:1;stroke-width:0.132292"
       cy="36.5"
       cx="12.499992"
       id="Db-9" />
    <circle
       r="2.5"
       inkscape:label="Eb1"
       style="display:inline;opacity:1;fill:#ff0000;fill-opacity:1;stroke-width:0.132292"
       cy="36.5"
       cx="22.49999"
       id="Eb-2" />
    <circle
       r="2.5"
       inkscape:label="Gb1"
       style="display:inline;opacity:1;fill:#ff0000;fill-opacity:1;stroke-width:0.132292"
       cy="36.5"
       cx="42.499989"
       id="Gb-0" />
    <circle
       r="2.5"
       inkscape:label="Ab1"
       style="display:inline;opacity:1;fill:#ff0000;fill-opacity:1;stroke-width:0.132292"
       cy="36.5"
       cx="52.499996"
       id="Ab-2" />
    <circle
       r="2.5"
       inkscape:label="Bb1"
       style="display:inline;opacity:1;fill:#ff0000;fill-opacity:1;stroke-width:0.132292"
       cy="36.5"
       cx="62.5"
       id="Bb-3" />
    <circle
       r="2.5"
       inkscape:label="c2"
       style="display:inline;opacity:1;fill:#ff0000;fill-opacity:1;stroke-width:0.132292"
       cy="70.999985"
       cx="7.5"
       id="c-7" />
    <circle
       r="2.5"
       inkscape:label="d2"
       style="display:inline;opacity:1;fill:#ff0000;fill-opacity:1;stroke-width:0.132292"
       cy="70.999985"
       cx="17.499969"
       id="d-5" />
    <circle
       r="2.5"
       inkscape:label="e2"
       style="display:inline;opacity:1;fill:#ff0000;fill-opacity:1;stroke-width:0.132292"
       cy="70.999985"
       cx="27.499969"
       id="e-9" />
    <circle
       r="2.5"
       inkscape:label="f2"
       style="display:inline;opacity:1;fill:#ff0000;fill-opacity:1;stroke-width:0.132292"
       cy="70.999985"
       cx="37.499985"
       id="f-2" />
    <circle
       r="2.5"
       inkscape:label="g2"
       style="display:inline;opacity:1;fill:#ff0000;fill-opacity:1;stroke-width:0.132292"
       cy="70.999985"
       cx="47.499985"
       id="g-2" />
    <circle
       r="2.5"
       inkscape:label="a2"
       style="display:inline;opacity:1;fill:#ff0000;fill-opacity:1;stroke-width:0.132292"
       cy="70.999985"
       cx="57.5"
       id="a-89" />
    <circle
       r="2.5"
       inkscape:label="b2"
       style="display:inline;opacity:1;fill:#ff0000;fill-opacity:1;stroke-width:0.132292"
       cy="70.999985"
       cx="67.500008"
       id="b-73" />
    <circle
       r="2.5"
       inkscape:label="Db2"
       style="display:inline;opacity:1;fill:#ff0000;fill-opacity:1;stroke-width:0.132292"
       cy="60.5"
       cx="12.499992"
       id="Db-6" />
    <circle
       r="2.5"
       inkscape:label="Eb2"
       style="display:inline;opacity:1;fill:#ff0000;fill-opacity:1;stroke-width:0.132292"
       cy="60.5"
       cx="22.499985"
       id="Eb-1" />
    <circle
       r="2.5"
       inkscape:label="Gb2"
       style="display:inline;opacity:1;fill:#ff0000;fill-opacity:1;stroke-width:0.132292"
       cy="60.5"
       cx="42.499977"
       id="Gb-2" />
    <circle
       r="2.5"
       inkscape:label="Ab2"
       style="display:inline;opacity:1;fill:#ff0000;fill-opacity:1;stroke-width:0.132292"
       cy="60.5"
       cx="52.5"
       id="Ab-9" />
    <circle
       r="2.5"
       inkscape:label="Bb2"
       style="display:inline;opacity:1;fill:#ff0000;fill-opacity:1;stroke-width:0.132292"
       cy="60.5"
       cx="62.5"
       id="Bb-31" />
    <circle
       inkscape:label="length"
       r="2.5"
       style="display:inline;opacity:1;fill:#ff0000;fill-opacity:1;stroke-width:0.132292"
       cy="86.5"
       cx="32.5"
       id="length" />
    <circle
       inkscape:label="step"
       r="2.5"
       style="display:inline;opacity:1;fill:#ff0000;fill-opacity:1;stroke-width:0.132292"
       cy="106.5"
       cx="32.5"
       id="step" />
  </g>
</svg>
