<?xml version="1.0" encoding="UTF-8" standalone="no"?>
<svg
   xmlns:dc="http://purl.org/dc/elements/1.1/"
   xmlns:cc="http://creativecommons.org/ns#"
   xmlns:rdf="http://www.w3.org/1999/02/22-rdf-syntax-ns#"
   xmlns:svg="http://www.w3.org/2000/svg"
   xmlns="http://www.w3.org/2000/svg"
   xmlns:sodipodi="http://sodipodi.sourceforge.net/DTD/sodipodi-0.dtd"
   xmlns:inkscape="http://www.inkscape.org/namespaces/inkscape"
   width="20"
   height="20"
   viewBox="0 0 14.2875 14.2875"
   version="1.1"
   id="svg16908"
   inkscape:version="1.0.1 (3bc2e813f5, 2020-09-07)"
   sodipodi:docname="SmallBlueKnob.svg">
  <defs
     id="defs16902">
    <clipPath
       clipPathUnits="userSpaceOnUse"
       id="clipPath6367">
      <path
         d="M 0,3193 H 2089 V 0 H 0 Z"
         id="path6365"
         inkscape:connector-curvature="0" />
    </clipPath>
  </defs>
  <sodipodi:namedview
     scale-x="2.7"
     id="base"
     pagecolor="#ffffff"
     bordercolor="#666666"
     borderopacity="1.0"
     inkscape:pageopacity="0.0"
     inkscape:pageshadow="2"
     inkscape:zoom="27.971627"
     inkscape:cx="17.649231"
     inkscape:cy="12.160454"
     inkscape:document-units="mm"
     inkscape:current-layer="g6447"
     showgrid="false"
     fit-margin-top="0"
     fit-margin-left="0"
     fit-margin-right="0"
     fit-margin-bottom="0"
     inkscape:window-width="1920"
     inkscape:window-height="1016"
     inkscape:window-x="0"
     inkscape:window-y="27"
     inkscape:window-maximized="1"
     units="px"
     inkscape:document-rotation="0" />
  <metadata
     id="metadata16905">
    <rdf:RDF>
      <cc:Work
         rdf:about="">
        <dc:format>image/svg+xml</dc:format>
        <dc:type
           rdf:resource="http://purl.org/dc/dcmitype/StillImage" />
        <dc:title></dc:title>
      </cc:Work>
    </rdf:RDF>
  </metadata>
  <g
     inkscape:label="Layer 1"
     inkscape:groupmode="layer"
     id="layer1"
     transform="translate(-230.09585,-118.46974)">
    <g
       id="g2012"
       transform="matrix(0.39686949,0,0,-0.39686949,-284.35202,1064.7261)"
       style="stroke-width:0.888901">
      <g
         transform="translate(1332.2646,2366.2998)"
         id="g6443"
         style="stroke-width:0.888901">
        <path
           inkscape:connector-curvature="0"
           id="path6445"
           style="fill:#e9e9e9;fill-opacity:1;fill-rule:nonzero;stroke:none;stroke-width:0.888901"
           d="m 0,0 c 0,-9.941 -8.06,-18 -18,-18 -9.941,0 -18,8.059 -18,18 0,9.941 8.059,18 18,18 C -8.06,18 0,9.941 0,0" />
      </g>
      <g
         transform="translate(1332.1631,2368.2021)"
         id="g6447"
         style="stroke-width:0.888901">
        <path
           inkscape:connector-curvature="0"
           id="path6449"
           style="fill:#0000cc;fill-opacity:1;fill-rule:evenodd;stroke:none;stroke-width:0.844456"
           d="m -0.8949,-0.0951 c -0.7505,1.21505 -2.014,2.41015 -2.717,4.11065 -0.703,1.6948 -0.65645,3.42855 -0.98135,4.81365 -0.76475,0.94715 -1.62545,1.8069 -2.57355,2.5726 -1.38605,0.32395 -3.1179,0.27835 -4.8146,0.98135 -1.7005,0.7049 -2.8956,1.96555 -4.10875,2.717 -0.59375,0.0627 -1.197,0.0988 -1.8069,0.0988 -0.6118,0 -1.21505,-0.0361 -1.80785,-0.0988 -1.21505,-0.75145 -2.41015,-2.0121 -4.11065,-2.717 -1.6948,-0.703 -3.42665,-0.6574 -4.81365,-0.98135 -0.94715,-0.7657 -1.8088,-1.62545 -2.5726,-2.5726 -0.3249,-1.3851 -0.2793,-3.11885 -0.98325,-4.81365 -0.703,-1.7005 -1.96555,-2.8956 -2.7151,-4.11065 -0.0627,-0.59375 -0.09785,-1.197 -0.09785,-1.8069 0,-0.61085 0.03515,-1.2141 0.09785,-1.80975 0.74955,-1.21315 2.0121,-2.40825 2.7151,-4.10875 0.70395,-1.6948 0.65835,-3.42855 0.98325,-4.8127 0.7638,-0.9481 1.62545,-1.8088 2.5726,-2.57355 1.387,-0.3249 3.11885,-0.27835 4.81365,-0.9804 1.7005,-0.70585 2.8956,-1.96745 4.11065,-2.71795 0.5928,-0.06175 1.19605,-0.09785 1.80785,-0.09785 0.6099,0 1.21315,0.0361 1.8069,0.09785 1.21315,0.7505 2.40825,2.0121 4.10875,2.71795 1.6967,0.70205 3.42855,0.6555 4.8146,0.9804 0.9481,0.76475 1.8088,1.62545 2.57355,2.57355 0.3249,1.38415 0.27835,3.1179 0.98135,4.8127 0.703,1.7005 1.9665,2.8956 2.717,4.10875 0.06175,0.59565 0.0969,1.1989 0.0969,1.80975 0,0.6099 -0.03515,1.21315 -0.0969,1.8069" />
      </g>
      <g
         transform="translate(1314.8633,2384.2314)"
         id="g6451"
         style="fill:#e9e9e9;fill-opacity:1;stroke-width:0.888901">
        <path
           inkscape:connector-curvature="0"
           id="path6453"
           style="fill:#e9e9e9;fill-opacity:1;fill-rule:evenodd;stroke:none;stroke-width:0.888901"
           d="M 0,0 C -0.195,0.045 -0.393,0.069 -0.598,0.069 -0.804,0.069 -1.002,0.045 -1.196,0 V -18.157 H 0 Z" />
      </g>
    </g>
  </g>
</svg>
